<svg width="256" height="256" viewBox="0 0 256 256" fill="none" xmlns="http://www.w3.org/2000/svg">
<path d="M0 68.2667C0 30.564 30.564 0 68.2667 0H187.733C225.436 0 256 30.564 256 68.2667V187.733C256 225.436 225.436 256 187.733 256H68.2667C30.564 256 0 225.436 0 187.733V68.2667Z" fill="url(#paint0_radial_4795_13014)"/>
<path d="M101.364 208C71.908 208 48.0293 184.122 48.0293 154.667L48.0293 101.334L112.013 101.334C106.13 101.344 101.364 106.116 101.364 112.001V154.667H144.031C149.923 154.667 154.698 149.892 154.698 144.001L154.699 208L101.364 208Z" fill="white" fill-opacity="0.32"/>
<path d="M101.335 48C130.791 48.0001 154.67 71.8778 154.67 101.333H112.033C106.142 101.333 101.367 106.108 101.367 111.999V154.665H144.033C149.924 154.665 154.699 149.89 154.699 143.999V101.333C184.139 101.35 208 125.223 208 154.667C207.999 184.122 184.122 208 154.667 208C125.213 208 101.333 184.122 101.333 154.667C71.8776 154.666 48 130.787 48 101.333C48.0004 71.8777 71.8792 48 101.335 48Z" fill="white"/>
<path d="M101.366 152.793C101.345 153.415 101.334 154.039 101.334 154.666C101.334 184.122 125.212 208 154.667 208C184.122 208 208 184.122 208 154.666C208 125.222 184.14 101.35 154.699 101.333V143.999C154.699 149.89 149.924 154.666 144.033 154.666H101.366V152.793Z" fill="white"/>
<defs>
<radialGradient id="paint0_radial_4795_13014" cx="0" cy="0" r="1" gradientUnits="userSpaceOnUse" gradientTransform="rotate(45) scale(362.039)">
<stop offset="0.0576923" stop-color="#FFDDA7"/>
<stop offset="0.259615" stop-color="#F79BB6"/>
<stop offset="0.456731" stop-color="#F279D7"/>
<stop offset="0.783654" stop-color="#7E6DFF"/>
</radialGradient>
</defs>
</svg>
