<svg xmlns="http://www.w3.org/2000/svg" viewBox="0 0 300 300" stroke="#8e2de1" stroke-width="8" xmlns:v="https://vecta.io/nano"><g stroke-miterlimit="10"><path d="M277.3 53.3c1.5 2.8 6 12.1 3.2 23.3-1.1 4.6-3.2 8.1-4.9 10.5-1-1.2-2.3-2.4-3.6-3.6-7.3-6.4-16.3-9.9-25.3-10h-.3c-6.7 0-12.9 2-17.8 5.5-20.4-11-46-16.5-75.9-16.5-33.3 0-60 5.4-80.5 16.5-5.2-3.7-11.4-5.6-18.2-5.6-9 .1-18.1 3.6-25.3 10-1.3 1-2.5 2.4-3.6 3.6a37.34 37.34 0 0 1-5-10.4c-3.5-11.7-.3-22 1.3-26.1l-6.1-1.8c-1.5 5-4.1 16.2-.2 29a50.65 50.65 0 0 0 6.6 13.6c-8.8 12.9-9.1 29.3.2 39.9 1 1.3 2.3 2.4 3.6 3.3-4.7 12.7-7.8 27.1-9.6 43.7-3.2 30.5 4.5 57.1 22.4 77 23.1 25.7 62.6 39.3 114.1 39.3 52.1 0 91.8-13.8 115.1-39.9 17.7-20 25.2-46.5 21.5-76.5-2.1-17-6-32.2-11.8-45.5l1.5-1.5c9.4-10.8 9-27.2.2-39.9 1.6-2.1 3.1-4.4 4.3-7.2 6.3-13.7 2.8-27.5.9-33.1-2.3.7-4.5 1.5-6.8 2.4zM10.8 37.8C8.2 32.4 8 26.3 10 20.6c2-5.6 6.2-10.1 11.7-12.7s11.5-2.8 17.2-.8c5.6 2 10.1 6.2 12.7 11.7s2.8 11.5.8 17.2c-2 5.6-6.2 10.1-11.7 12.7-11.4 5.2-24.9.3-29.9-10.9zm256.5 147c3 20.2-3 37.8-17.3 51.3-19 17.6-51.9 27-95.1 27-42.8 0-75.4-9.2-94.4-26.6-14.4-13.3-20.7-31.2-18-51.5 7.2-55.1 40.8-78.6 112.4-78.6 66.9-.2 104.8 26.3 112.4 78.4zm-19.6-147c-2.5-5.4-2.8-11.5-.8-17.2 2-5.6 6.2-10.1 11.7-12.7 5.4-2.5 11.5-2.8 17.2-.8 5.6 2 10.1 6.2 12.7 11.7s2.8 11.5.8 17.2c-2 5.6-6.2 10.1-11.7 12.7-11.4 5.2-24.9.3-29.9-10.9z" fill="#8e2de1"/><path d="M204.8 114.3c-26.2-2.1-76.6-2.4-104.5 0-33.3 2.9-58.5 33.2-58.5 70.5 0 36.8 24.1 65.8 58.4 70.4 14.4 2 34 3.3 54.5 3.3 17.1 0 34.8-.9 50.3-3.3 34.4-5.3 58.4-34.3 58.4-70.4.1-37.6-25.2-67.9-58.6-70.5zm-.5 135.8c-33.5 5.2-77.1 3.6-103.3 0-31.8-4.4-54-31.2-54-65.4 0-34.5 23.1-62.8 53.8-65.4 13-1 31.3-1.6 49.6-1.6 20.2 0 40.6.6 54 1.6 30.7 2.3 53.8 30.5 53.8 65.4.2 33.6-22.1 60.6-53.9 65.4z" fill="#fff"/><path d="M97.6 152.5c-10.6 0-19.3 8.7-19.3 19.3s8.7 19.3 19.3 19.3 19.3-8.7 19.3-19.3c.1-10.6-8.7-19.3-19.3-19.3zm0 33.4c-7.8 0-14.1-6.4-14.1-14.1s6.4-14.1 14.1-14.1c7.8 0 14.1 6.4 14.1 14.1s-6.4 14.1-14.1 14.1zm107.3-33.4c-10.6 0-19.3 8.7-19.3 19.3s8.7 19.3 19.3 19.3 19.3-8.7 19.3-19.3-8.7-19.3-19.3-19.3zm2.1 33.4c-7.8 0-14.1-6.4-14.1-14.1s6.4-14.1 14.1-14.1c7.8 0 14.1 6.4 14.1 14.1s-6.3 14.1-14.1 14.1zm-22.6 14.4h-63.6a2.69 2.69 0 0 0-2.7 2.7c0 18.9 15.5 34.3 34.3 34.3s34.3-15.5 34.3-34.3c.4-1.7-.9-2.7-2.3-2.7zm-31.8 31.6c-15.1 0-27.7-11.7-29-26.6h58.1c-1.2 14.9-13.8 26.6-29.1 26.6z" fill="#8e2de1"/></g><ellipse cx="153.9" cy="218.7" rx="25.6" ry="13.3" fill="#8e2de1"/><ellipse cx="53.2" cy="108.1" rx="26.6" ry="27.8" fill="#8e2de1"/><circle cx="254.9" cy="106" r="25.7" fill="#8e2de1"/><circle cx="97.6" cy="171.8" r="11.4" fill="#8e2de1"/><circle cx="207" cy="171.8" r="9.8" fill="#8e2de1"/></svg>