<svg width="256" height="256" viewBox="0 0 256 256" fill="none" xmlns="http://www.w3.org/2000/svg">
<rect width="256" height="256" rx="20" fill="#230655"/>
<path d="M92.272 64.1249H206.392L208.017 56.8749C210.392 45.625 201.892 35 190.393 35H79.5226C65.1482 35 52.7737 44.9999 49.6488 58.9999L25.3999 171C23.025 182.25 31.5246 192.874 43.0241 192.874H49.7739L74.5228 78.3748C76.3977 70.1249 83.7724 64.1249 92.272 64.1249Z" fill="#00CDFA"/>
<path d="M213.144 64.125H206.394L181.645 178.625C179.895 186.875 172.521 192.875 164.021 192.875H49.9008L48.2759 200.125C45.901 211.375 54.4006 221.999 65.9001 221.999H176.77C191.145 221.999 203.519 212 206.644 198L230.893 86.1249C233.268 74.75 224.643 64.125 213.144 64.125Z" fill="url(#paint0_linear_622_3153)"/>
<path d="M181.644 178.625L206.393 64.125H92.2726C83.7729 64.125 76.3983 70 74.6483 78.3749L49.8994 192.875H164.02C172.519 192.875 179.769 186.875 181.644 178.625Z" fill="#3A00FF"/>
<path d="M87.023 149.185L78.7646 106.249H91.7152L95.7036 133.043L108.795 106.249H117.523L122.637 133.043L134.649 106.249H147.6L126.626 149.185H115.786L110.625 124.033L98.0029 149.185H87.023Z" fill="white"/>
<path d="M143.057 142.238L149.813 134.401C152.863 138.155 156.711 140.079 161.45 140.079C164.5 140.079 167.175 138.812 167.597 136.701C167.738 135.434 166.893 134.354 164.922 133.416C164.453 133.181 163.421 132.806 161.779 132.243C158.541 130.976 157.133 130.507 154.318 128.723C150.377 126.283 148.5 122.905 149.157 117.086C150.423 109.156 157.696 104.745 166.893 104.745C173.181 104.745 178.342 106.81 182.518 110.892L175.855 118.682C173.087 116.101 169.896 114.834 166.283 114.834C163.374 114.834 161.638 115.678 161.263 117.509C160.934 119.01 161.732 120.277 163.609 121.122C164.219 121.45 165.486 121.966 167.362 122.67C169.239 123.374 170.835 123.984 172.149 124.735C176.372 126.518 181.345 130.694 179.844 137.076C179.14 141.252 177.029 144.537 173.462 146.883C169.943 149.229 165.673 150.403 160.887 150.403C153.192 150.356 147.233 147.681 143.057 142.238Z" fill="white"/>
<defs>
<linearGradient id="paint0_linear_622_3153" x1="47.8735" y1="143.08" x2="231.243" y2="143.08" gradientUnits="userSpaceOnUse">
<stop stop-color="#FFB3FF"/>
<stop offset="0.5335" stop-color="#FF76DF"/>
<stop offset="1" stop-color="#C239C6"/>
</linearGradient>
</defs>
</svg>
