<svg width="256" height="256" viewBox="0 0 256 256" fill="none" xmlns="http://www.w3.org/2000/svg">
<rect x="256" width="256" height="256" transform="rotate(90 256 0)" fill="url(#paint0_linear_2718_1738)"/>
<rect x="256" width="256" height="256" transform="rotate(90 256 0)" fill="url(#paint1_radial_2718_1738)"/>
<path d="M226.341 131.195C223.38 131.195 221.264 128.617 220.84 126.078L214.916 90.9592C214.07 85.0355 208.57 81.2275 202.647 82.4968C197.994 83.3431 194.608 86.728 193.762 91.3823L184.454 161.62C184.031 164.582 181.492 166.697 178.531 166.274C175.992 165.851 174.3 164.159 173.876 161.62L162.876 68.957C162.03 63.4565 157.799 59.6484 152.298 59.6484H151.452C146.375 59.6484 142.144 63.0334 141.298 68.1108L133.682 101.114C132.836 104.499 129.451 106.615 126.066 106.191C123.528 105.768 121.835 103.653 120.989 101.114L114.643 68.5339C113.373 62.6103 107.873 58.8022 101.95 60.0716C97.2955 60.9178 93.9108 64.7258 93.4876 69.3802L82.4871 161.62C82.064 164.159 79.9485 166.274 77.4099 166.274C74.4482 166.274 72.3327 164.159 71.9097 161.197L65.14 93.921C64.2939 87.1511 58.3704 82.0737 51.6009 82.4968C46.5238 82.9199 42.2927 87.1511 41.0233 92.6516L35.1 125.655C34.6769 129.04 31.7153 131.155 28.3304 131.155L14.135 131.191C13.3285 131.193 12.6758 131.847 12.6758 132.654V137.372C12.6758 138.182 13.3346 138.838 14.1449 138.834L28.7535 138.772C35.5231 138.772 41.8696 133.694 43.1389 126.924L49.0623 93.921C49.4854 91.8054 51.6009 90.1129 53.7163 90.1129C56.2549 90.1129 58.3704 91.8054 58.3704 94.3441L65.14 161.62C65.9862 168.813 72.3327 173.89 79.1024 173.467C85.0257 173.044 90.1028 167.967 90.949 162.043L101.527 69.8033C101.527 68.1108 103.219 67.2646 104.488 67.2646C105.757 67.2646 107.027 68.1108 107.45 69.8033L113.796 102.383C114.587 107.127 118.332 111.133 122.962 113.019C123.545 113.256 123.951 113.809 123.951 114.439V171.567C123.951 172.196 123.543 172.747 122.965 172.997C117.26 175.454 114.332 181.843 116.335 187.853C118.45 194.2 125.22 197.585 131.567 195.469C137.913 193.354 141.298 186.584 139.182 180.237C138.026 177.153 135.815 174.42 132.551 172.998C131.974 172.747 131.567 172.196 131.567 171.567V114.103C131.567 113.432 132.027 112.855 132.661 112.636C137.186 111.07 140.514 107.12 141.298 102.806L148.876 69.9656C148.901 69.8577 148.912 69.7472 148.918 69.6366C148.998 68.0552 150.225 67.2646 151.452 67.2646H152.298C153.521 67.2646 154.743 68.4421 155.21 69.6631C155.245 69.7556 155.266 69.8528 155.278 69.9512L166.261 162.043C167.107 169.236 173.453 174.313 180.646 173.467C186.569 172.621 191.224 168.39 191.647 162.466L200.956 92.2285C200.956 90.9592 202.224 89.6898 203.916 89.6898C205.186 89.6898 206.455 90.536 206.877 92.2285L212.801 127.347C214.07 133.694 219.571 138.841 225.917 138.841H241.861C242.669 138.841 243.324 138.186 243.324 137.378V132.657C243.324 131.85 242.669 131.195 241.861 131.195H226.341ZM127.336 187.853C125.22 187.853 123.104 185.738 123.104 183.622C123.104 181.506 125.22 179.391 127.336 179.391C129.451 179.391 131.567 181.083 131.567 183.622C131.567 186.161 129.874 187.853 127.336 187.853Z" fill="black"/>
<defs>
<linearGradient id="paint0_linear_2718_1738" x1="256" y1="256" x2="405.614" y2="77.1211" gradientUnits="userSpaceOnUse">
<stop stop-color="#6495C2"/>
<stop offset="1" stop-color="#D8DEE8"/>
</linearGradient>
<radialGradient id="paint1_radial_2718_1738" cx="0" cy="0" r="1" gradientTransform="matrix(-413.037 -66.679 -42.5138 -449.238 512 166.102)" gradientUnits="userSpaceOnUse">
<stop stop-color="#D8E2E8"/>
<stop offset="1" stop-color="#D8E0E8" stop-opacity="0"/>
</radialGradient>
</defs>
</svg>
