<svg xmlns="http://www.w3.org/2000/svg" viewBox="0 0 291.57 358.77"><defs><style>.cls-1,.cls-2,.cls-3{fill:#4cba45;}.cls-1{opacity:0.5;}.cls-2{opacity:0.75;}</style></defs><g id="Layer_2" data-name="Layer 2"><g id="Layer_1-2" data-name="Layer 1"><polygon class="cls-1" points="264.29 20.22 265.86 259.77 286.61 263.37 291.57 1.05 94.61 0 95.65 11.29 264.29 20.22"/><polygon class="cls-1" points="222.79 265.5 223.66 299.5 252.92 306.64 252.86 270.71 222.79 265.5"/><polygon class="cls-1" points="83.74 23.68 52.36 22.01 54.08 35.66 85.17 39.13 83.74 23.68"/><polygon class="cls-2" points="251.37 32.55 96.86 24.37 98.36 40.61 217.38 53.9 222.45 252.25 252.85 257.52 251.37 32.55"/><polygon class="cls-1" points="71.23 275.68 42.47 47.45 0 42.7 35.77 303.53 212.17 358.77 210.91 309.77 71.23 275.68"/><polygon class="cls-2" points="104.21 244.94 86.4 52.35 55.76 48.93 83.01 265.17 210.57 296.31 209.72 263.23 104.21 244.94"/><polygon class="cls-3" points="209.38 249.98 204.67 65.56 99.59 53.83 116.24 233.83 209.38 249.98"/></g></g></svg>