<svg xmlns="http://www.w3.org/2000/svg" width="128" height="128" viewBox="0 0 128 128">
  <defs>
    <linearGradient id="g" x1="0" y1="0" x2="1" y2="1">
      <stop stop-color="#4285f4" offset="0%"/>
      <stop stop-color="#34a853" offset="45%"/>
      <stop stop-color="#fbbc04" offset="100%"/>
    </linearGradient>
  </defs>
  <rect width="128" height="128" rx="34" fill="#fff"/>
  <circle cx="64" cy="64" r="42" fill="none" stroke="url(#g)" stroke-width="15"/>
  <path d="M66 58h38v13H66z" fill="#4285f4"/>
  <path d="M90 71c-5 14-18 23-35 23-22 0-40-17-40-40s18-40 40-40c12 0 22 4 30 12L75 37c-5-5-12-8-20-8-14 0-25 11-25 25s11 25 25 25c9 0 16-3 20-8z" fill="#4285f4" opacity=".25"/>
</svg>
