<svg xmlns="http://www.w3.org/2000/svg" width="34" height="45" viewBox="0 0 34 45" fill="none"><path d="M7.28591 9.62642C7.95146 9.04589 8.73871 8.62199 9.58972 8.3859C11.5096 7.70657 24.3578 5.98363 26.8585 10.4928C29.3592 15.002 29.3494 25.3593 29.3494 25.3593L29.1623 26.9838L27.144 36.0021L23.6883 40.3243L23.4028 40.6098L21.1974 42.5789L18.6081 43.5634L16.7375 44.1541H16.5504L12.3267 42.4312L10.5053 40.8953L9.78663 40.3243L6.33091 35.2342L5.56297 28.815L4.224 26.8952V23.6364L4.50951 20.2791L5.49405 11.9302L7.28591 9.62642Z" fill="#121426"></path><path d="M17.8393 3.77826C17.871 3.49969 17.9899 3.23826 18.1791 3.03137C18.3683 2.82448 18.6181 2.68271 18.8927 2.62636C19.2129 2.52386 19.5571 2.52386 19.8773 2.62636C20.7454 2.86147 21.5171 3.36449 22.0826 4.06378C22.6244 4.75542 23.044 5.53458 23.3232 6.3676C24.0416 8.24195 24.4763 10.2131 24.6129 12.2157L25.7648 13.2003C25.6388 10.7349 25.1203 8.30539 24.2289 6.00332C23.8429 5.02943 23.3614 4.09614 22.7915 3.21708C22.2089 2.35722 21.3876 1.68647 20.4286 1.28739C19.4814 0.904204 18.4223 0.904204 17.475 1.28739C17.0129 1.51331 16.6138 1.84994 16.3132 2.26733C16.0126 2.68472 15.8199 3.16993 15.7521 3.67981L17.8393 3.77826Z" fill="#107DBB" stroke="#081626" stroke-width="0.11" stroke-miterlimit="10"></path><path d="M16.1169 3.58135C16.2964 2.9811 16.6622 2.45347 17.1612 2.07473C17.6603 1.69599 18.2669 1.48577 18.8933 1.47444C19.5159 1.4757 20.1306 1.61394 20.6938 1.87937C21.257 2.1448 21.7549 2.53092 22.1522 3.01032C22.5331 3.41529 22.8637 3.86488 23.1367 4.34929C24.414 6.59662 25.2276 9.07737 25.5291 11.6447" stroke="#081626" stroke-width="0.11" stroke-miterlimit="10"></path><path d="M16.8844 3.67981C17.0436 3.29025 17.3051 2.95098 17.6413 2.69794C17.9776 2.44489 18.376 2.28748 18.7944 2.24239C19.6502 2.16257 20.5055 2.40091 21.1967 2.91188C21.8931 3.42596 22.454 4.10175 22.831 4.88095C24.0715 6.98786 24.357 9.48858 24.6524 11.9795" stroke="#081626" stroke-width="0.11" stroke-miterlimit="10"></path><path d="M16.5007 3.67982C16.6619 3.24237 16.9243 2.84928 17.2666 2.53271C17.6088 2.21614 18.0211 1.98508 18.4698 1.85843C18.9398 1.78098 19.4206 1.80042 19.8828 1.91555C20.3451 2.03067 20.7788 2.23906 21.1576 2.52791C21.7971 3.04291 22.349 3.65799 22.7919 4.34931C24.1309 6.46606 24.5149 8.95694 24.8988 11.3592" stroke="#4BBEED" stroke-width="0.21" stroke-linecap="round" stroke-linejoin="round"></path><path d="M2.30381 32.1723C2.22906 32.1708 2.15563 32.1523 2.0891 32.1182C2.02258 32.084 1.96469 32.0352 1.91985 31.9754L0.482422 24.8769C0.483458 24.8031 0.500758 24.7304 0.533091 24.664C0.565424 24.5976 0.611994 24.5392 0.669484 24.4929C0.744237 24.4944 0.817664 24.5129 0.884194 24.547C0.950724 24.5812 1.00861 24.63 1.05345 24.6898L2.49088 31.7883C2.48984 31.8621 2.47254 31.9348 2.44021 32.0012C2.40787 32.0676 2.3613 32.126 2.30381 32.1723Z" fill="#00529A"></path><path d="M1.63433 31.8769C1.56014 31.8781 1.48671 31.8618 1.42001 31.8293C1.3533 31.7968 1.29518 31.749 1.25036 31.6899L0 25.2609C0 25.1624 0.0984537 24.9753 0.187062 24.9753C0.260879 24.9764 0.33356 24.9937 0.399928 25.026C0.466296 25.0583 0.524717 25.1049 0.571031 25.1624L1.82139 31.4634C1.96907 31.6899 1.82139 31.7883 1.63433 31.8769Z" fill="#061E31"></path><path d="M4.4112 33.6097C4.22155 33.6497 4.02581 33.6511 3.8356 33.614C3.64538 33.5768 3.46456 33.5018 3.30387 33.3935C3.14318 33.2851 3.00588 33.1456 2.90014 32.9832C2.79439 32.8208 2.72234 32.6388 2.68826 32.448L0.866871 24.0105C0.826842 23.8215 0.82504 23.6265 0.861571 23.4368C0.898101 23.2472 0.972226 23.0667 1.07958 22.9062C1.18693 22.7456 1.32533 22.6081 1.48663 22.5019C1.64793 22.3957 1.82887 22.3228 2.01878 22.2876C2.2143 22.2368 2.41814 22.2267 2.61771 22.2579C2.81728 22.2891 3.00833 22.3609 3.17905 22.4689C3.34977 22.5768 3.49652 22.7187 3.61023 22.8856C3.72395 23.0526 3.80221 23.2411 3.84017 23.4395L5.56311 31.8769C5.60462 32.0666 5.60754 32.2626 5.57171 32.4535C5.53588 32.6443 5.46203 32.8259 5.35456 32.9876C5.24708 33.1492 5.10818 33.2876 4.94611 33.3945C4.78405 33.5014 4.60213 33.5746 4.4112 33.6097Z" fill="url(#paint0_linear_3066_1181)" stroke="#062138" stroke-width="0.21" stroke-miterlimit="10"></path><path d="M0.984497 27.0822L1.56537 26.9838" stroke="#3CC5F2" stroke-width="0.21" stroke-miterlimit="10"></path><path d="M1.0531 27.5253L1.63398 27.4268" stroke="#3CC5F2" stroke-width="0.21" stroke-miterlimit="10"></path><path d="M1.15198 28.0471L1.72301 27.9486" stroke="#3CC5F2" stroke-width="0.21" stroke-miterlimit="10"></path><path d="M1.25 28.5098L1.82103 28.4212" stroke="#3CC5F2" stroke-width="0.21" stroke-miterlimit="10"></path><path d="M2.20532 29.77L4.92264 29.199L5.20816 30.6364L2.52037 31.109L2.20532 29.77Z" fill="url(#paint1_linear_3066_1181)"></path><path d="M9.01871 22.77C8.71215 23.4971 8.15927 24.093 7.45711 24.4531C6.75495 24.8132 5.94839 24.9144 5.17902 24.7391C4.78035 24.6603 4.39329 24.5313 4.02711 24.3551C4.02628 23.2658 4.09204 22.1775 4.22401 21.0963L4.79505 13.8107C4.93461 12.5867 5.43495 11.4318 6.23247 10.4928C6.65712 10.0499 7.1075 9.63237 7.58128 9.24245C7.66989 9.24245 7.76835 9.144 7.8668 9.144C7.36454 10.1606 7.10184 11.2788 7.09886 12.4127C7.12699 14.7916 7.65005 17.1386 8.63474 19.3044C9.13565 20.3873 9.27043 21.6037 9.01871 22.77Z" fill="url(#paint2_linear_3066_1181)"></path><path d="M31.1703 32.1723C31.2451 32.1708 31.3185 32.1523 31.385 32.1182C31.4516 32.084 31.5095 32.0352 31.5543 31.9754L32.9917 24.8769C32.9907 24.8031 32.9734 24.7304 32.9411 24.664C32.9087 24.5976 32.8622 24.5392 32.8047 24.4929C32.7299 24.4944 32.6565 24.5129 32.59 24.547C32.5234 24.5812 32.4655 24.63 32.4207 24.6898L30.9833 31.7883C30.9843 31.8621 31.0016 31.9348 31.0339 32.0012C31.0663 32.0676 31.1128 32.126 31.1703 32.1723Z" fill="#00529A"></path><path d="M31.8394 31.8769C31.9136 31.8781 31.987 31.8618 32.0537 31.8293C32.1204 31.7968 32.1785 31.749 32.2234 31.6899L33.4737 25.3593C33.472 25.2856 33.4544 25.2132 33.4222 25.1469C33.3899 25.0806 33.3437 25.0221 33.2867 24.9753C33.2129 24.9764 33.1402 24.9937 33.0738 25.026C33.0074 25.0583 32.949 25.1049 32.9027 25.1624L31.6523 31.4634C31.5539 31.6899 31.6523 31.7883 31.8394 31.8769Z" fill="#061E31"></path><path d="M29.0633 33.6097C29.253 33.6497 29.4487 33.6511 29.6389 33.614C29.8291 33.5768 30.0099 33.5018 30.1706 33.3935C30.3313 33.2851 30.4686 33.1456 30.5744 32.9832C30.6801 32.8208 30.7522 32.6388 30.7862 32.448L32.6076 24.0007C32.6647 23.6272 32.5754 23.2462 32.3585 22.9369C32.1416 22.6276 31.8138 22.4139 31.4433 22.3403C31.0728 22.2667 30.6881 22.3389 30.3695 22.5418C30.0509 22.7447 29.8228 23.0627 29.7328 23.4296L28.0098 31.8671C27.9472 32.0508 27.9255 32.246 27.9463 32.4389C27.9671 32.6319 28.0299 32.8179 28.1303 32.984C28.2307 33.1501 28.3662 33.2922 28.5274 33.4003C28.6886 33.5084 28.8715 33.5799 29.0633 33.6097Z" fill="url(#paint3_linear_3066_1181)" stroke="#062138" stroke-width="0.21" stroke-miterlimit="10"></path><path d="M32.4892 27.0822L31.9083 26.9838" stroke="#3CC5F2" stroke-width="0.21" stroke-miterlimit="10"></path><path d="M32.4205 27.5253L31.8396 27.4268" stroke="#3CC5F2" stroke-width="0.21" stroke-miterlimit="10"></path><path d="M32.3224 28.0471L31.7513 27.9486" stroke="#3CC5F2" stroke-width="0.21" stroke-miterlimit="10"></path><path d="M32.2239 28.5098L31.6528 28.4212" stroke="#3CC5F2" stroke-width="0.21" stroke-miterlimit="10"></path><path d="M31.2685 29.77L28.5511 29.199L28.2656 30.6364L30.9534 31.109L31.2685 29.77Z" fill="url(#paint4_linear_3066_1181)"></path><path d="M8.05388 8.95693C7.88372 9.02944 7.72463 9.12555 7.5813 9.24245C7.66991 9.24245 7.76836 9.14399 7.86681 9.14399C8.61952 9.0235 9.38967 9.07328 10.1206 9.28966C10.8515 9.50604 11.5247 9.88353 12.0905 10.3944C15.0441 12.8852 15.0441 13.5646 16.7867 13.5646V6.3676C13.6626 6.18365 10.5728 7.0998 8.05388 8.95693ZM25.4211 8.95693C22.8861 7.16956 19.8376 6.25709 16.7375 6.35775V13.7418C18.4604 13.7418 18.4604 13.1707 21.4337 10.5814C21.978 10.0566 22.6403 9.66996 23.365 9.4541C24.0897 9.23824 24.8555 9.19942 25.5983 9.3409C25.6503 9.33379 25.7032 9.339 25.7528 9.3561C25.8024 9.3732 25.8473 9.40172 25.8838 9.43935C25.8481 9.32927 25.7878 9.22869 25.7077 9.14515C25.6276 9.06161 25.5296 8.99727 25.4211 8.95693Z" fill="url(#paint5_radial_3066_1181)"></path><path d="M24.4559 22.77C24.7625 23.4971 25.3154 24.093 26.0175 24.4531C26.7197 24.8132 27.5263 24.9144 28.2956 24.7391C28.6943 24.6603 29.0814 24.5313 29.4475 24.3551C29.4484 23.2658 29.3826 22.1775 29.2506 21.0963L28.5516 13.8501C28.4281 12.6155 27.9377 11.4462 27.1437 10.4928C26.7776 10.0283 26.3579 9.60856 25.8934 9.24245C25.8048 9.24245 25.7063 9.144 25.6079 9.144C26.1101 10.1606 26.3728 11.2788 26.3758 12.4127C26.3477 14.7916 25.8246 17.1386 24.8399 19.3044C24.339 20.3873 24.2042 21.6037 24.4559 22.77Z" fill="url(#paint6_linear_3066_1181)"></path><path d="M14.2954 43.0022C13.662 42.9537 13.042 42.7937 12.4642 42.5296C12.2324 42.4173 12.0087 42.289 11.7947 42.1457L9.78626 40.3243L7.5809 38.5029C6.93147 37.9273 6.43432 37.2002 6.13363 36.3861C5.23938 33.2765 4.58115 30.1039 4.16456 26.8952C4.0661 26.4128 4.06611 25.9107 3.96765 25.4578C4.20438 25.4738 4.43544 25.5374 4.64698 25.6448C5.57733 26.075 6.44775 26.6244 7.23631 27.2792C7.62028 27.5647 9.20539 28.5197 9.34322 29.1005C9.48106 29.6814 8.19131 30.2525 8.00425 30.8235C7.75783 31.5717 7.75783 32.3791 8.00425 33.1273C8.1849 34.2706 8.47165 35.3945 8.8608 36.4846C9.15045 37.4696 9.63974 38.3845 10.2982 39.1724C11.1212 39.8799 11.9858 40.5375 12.8876 41.1414C13.2331 41.3437 13.5354 41.6122 13.777 41.9315C14.0186 42.2508 14.1948 42.6147 14.2954 43.0022Z" fill="url(#paint7_linear_3066_1181)"></path><path d="M16.7375 13.6532V43.1893H16.639C15.873 43.2123 15.1063 43.1794 14.345 43.0908C14.0084 42.3776 13.4928 41.7637 12.8485 41.3088C11.925 40.7359 11.058 40.0766 10.2592 39.3397C9.63283 38.4833 9.17814 37.5138 8.92025 36.4846C8.5324 35.3934 8.24246 34.2699 8.05385 33.1273C7.916 32.3655 7.916 31.5852 8.05385 30.8235C8.25076 30.2524 9.40267 29.583 9.40267 29.1005C9.40267 28.6181 7.76834 27.5253 7.28592 27.2791C6.54703 26.5587 5.6648 26.0019 4.69658 25.6448C4.48897 25.5363 4.26089 25.4726 4.0271 25.4578V24.3945C4.39329 24.5706 4.78035 24.6997 5.17901 24.7784C5.94838 24.9538 6.75494 24.8525 7.4571 24.4925C8.15926 24.1324 8.71215 23.5365 9.0187 22.8093C9.40267 21.6574 8.92025 20.5055 8.53628 19.3536C7.76834 17.1483 6.90195 14.8444 7.0004 12.4619C7.01471 11.3293 7.27683 10.2136 7.76834 9.19321C8.51737 9.06618 9.28532 9.1081 10.0161 9.31592C10.7468 9.52373 11.4219 9.89218 11.992 10.3943C15.0638 12.9837 15.0638 13.6532 16.7375 13.6532Z" fill="url(#paint8_linear_3066_1181)"></path><path d="M19.1792 43.0022C19.8127 42.9537 20.4326 42.7937 21.0104 42.5296C21.2422 42.4173 21.4659 42.289 21.6799 42.1457L23.649 40.4129L25.8544 38.5915C26.5056 38.0214 27.0032 37.297 27.3016 36.4846C28.1969 33.3719 28.8552 30.1959 29.2707 26.9838C29.3692 26.5112 29.3692 25.9993 29.4676 25.5464C29.2303 25.566 28.9993 25.6329 28.7883 25.7433C27.8601 26.1733 26.99 26.7192 26.1989 27.3678C25.815 27.6631 24.2299 28.6181 24.092 29.199C23.9542 29.7799 25.2439 30.3411 25.431 30.9219C25.6774 31.6701 25.6774 32.4776 25.431 33.2258C25.2632 34.3677 24.9896 35.4917 24.6138 36.583C24.3261 37.5659 23.8366 38.478 23.1764 39.261C22.3842 39.9925 21.5491 40.6763 20.6757 41.3088C20.3153 41.4608 19.9936 41.6919 19.7346 41.9851C19.4755 42.2782 19.2857 42.6258 19.1792 43.0022Z" fill="url(#paint9_linear_3066_1181)"></path><path d="M16.7864 13.6532V43.1893H16.8848C17.6509 43.2123 18.4176 43.1794 19.1788 43.0908C19.5154 42.3776 20.031 41.7637 20.6753 41.3088C21.5988 40.7359 22.4658 40.0766 23.2646 39.3397C23.8688 38.5048 24.325 37.5724 24.6134 36.583C25.0026 35.493 25.2893 34.369 25.47 33.2258C25.6177 32.4649 25.6177 31.6828 25.47 30.9219C25.2829 30.3411 24.131 29.6716 24.131 29.199C24.131 28.7264 25.7654 27.6631 26.2379 27.3678C26.9788 26.6523 27.8607 26.099 28.8273 25.7433C29.048 25.6325 29.2894 25.5688 29.5361 25.5562V24.4929C29.1682 24.6648 28.7817 24.7936 28.3842 24.8769C27.615 25.0483 26.8101 24.9452 26.1088 24.5856C25.4076 24.226 24.8542 23.6325 24.5445 22.9078C24.1606 21.7559 24.643 20.604 25.0269 19.4521C25.961 17.2697 26.4818 14.9328 26.5628 12.5603C26.5434 11.4316 26.2815 10.3202 25.7949 9.30152C25.0481 9.17185 24.2818 9.21159 23.5525 9.41778C22.8231 9.62397 22.1494 9.99136 21.5811 10.4928C18.4109 12.9837 18.4109 13.6532 16.7864 13.6532Z" fill="url(#paint10_linear_3066_1181)"></path><path d="M4.22331 21.2341C3.95063 23.1113 3.95063 25.018 4.22331 26.8952L9.018 30.154C9.66404 30.5917 10.4536 30.7644 11.2234 30.6364L16.786 29.4944L22.3486 30.6463C22.729 30.734 23.1241 30.7362 23.5055 30.6528C23.8869 30.5694 24.245 30.4024 24.554 30.1638L29.3487 26.905C29.6207 24.9948 29.6207 23.0557 29.3487 21.1455C21.079 22.996 12.5058 23.0262 4.22331 21.2341Z" fill="#061E31"></path><path d="M4.22356 20.9486C3.95722 22.9086 3.95722 24.8957 4.22356 26.8558L9.7862 30.1146C9.96529 30.1947 10.1616 30.2286 10.3572 30.2131L16.7863 29.1596L23.2153 30.2131C23.4109 30.2286 23.6072 30.1947 23.7863 30.1146L29.3489 26.8558C29.6178 24.8498 29.6178 22.8168 29.3489 20.8107C21.0885 22.7265 12.5045 22.7736 4.22356 20.9486Z" fill="url(#paint11_linear_3066_1181)"></path><path d="M4.224 20.8501L4.79503 20.9486C12.6826 22.4846 20.7923 22.4846 28.6799 20.9486L29.2509 20.8501" stroke="#061E31" stroke-width="0.21" stroke-miterlimit="10"></path><path d="M4.224 20.9486L4.79503 21.0372C12.6826 22.5732 20.7923 22.5732 28.6799 21.0372L29.2509 20.9486" stroke="url(#paint12_linear_3066_1181)" stroke-width="0.21" stroke-miterlimit="10"></path><path opacity="0.7" d="M16.3039 32.3594C17.5365 32.3594 18.7414 31.9939 19.7663 31.3091C20.7911 30.6243 21.5899 29.651 22.0616 28.5122C22.5333 27.3734 22.6567 26.1203 22.4163 24.9114C22.1758 23.7025 21.5823 22.5921 20.7107 21.7205C19.8391 20.8489 18.7286 20.2554 17.5197 20.0149C16.3108 19.7744 15.0577 19.8978 13.919 20.3695C12.7802 20.8412 11.8069 21.64 11.1221 22.6649C10.4373 23.6897 10.0718 24.8947 10.0718 26.1273C10.0705 26.946 10.2308 27.757 10.5435 28.5137C10.8563 29.2704 11.3153 29.958 11.8942 30.5369C12.4732 31.1159 13.1607 31.5749 13.9174 31.8876C14.6741 32.2004 15.4851 32.3607 16.3039 32.3594Z" fill="url(#paint13_radial_3066_1181)"></path><path d="M23.6875 40.3243C22.8961 41.4352 21.8668 42.3555 20.6745 43.0181C19.4822 43.6806 18.1571 44.0687 16.7958 44.1541V43.1007H16.8942C18.3025 43.1988 19.7145 42.9697 21.0194 42.4312C21.2532 42.3226 21.4772 42.1942 21.6889 42.0472L23.6875 40.3243Z" fill="#061E31"></path><path d="M9.78638 40.3243C10.5778 41.4352 11.6072 42.3555 12.7994 43.0181C13.9917 43.6806 15.3168 44.0687 16.6781 44.1541V43.1007H16.5797C15.1714 43.1988 13.7594 42.9697 12.4545 42.4312C12.2207 42.3226 11.9967 42.1942 11.785 42.0472L9.78638 40.3243Z" fill="#061E31"></path><path d="M29.7333 26.1272L31.6531 26.4128" stroke="#121426" stroke-width="0.21" stroke-miterlimit="10" stroke-linecap="round"></path><path d="M3.64329 26.0288L1.8219 26.3143" stroke="#121426" stroke-width="0.21" stroke-miterlimit="10" stroke-linecap="round"></path><path d="M10.2594 40.7968L11.7067 34.417C11.7067 34.3186 11.7953 34.3186 11.8937 34.3186H21.4831C21.5578 34.329 21.6269 34.3636 21.68 34.417L23.1174 40.8362L22.8319 41.1316L21.3847 34.6041H12.0906L10.5548 41.0331L10.2594 40.7968Z" fill="url(#paint14_radial_3066_1181)"></path><path d="M20.9116 36.3861H12.5627C12.5192 36.3762 12.4804 36.3518 12.4525 36.3169C12.4247 36.282 12.4095 36.2388 12.4095 36.1941C12.4095 36.1495 12.4247 36.1062 12.4525 36.0713C12.4804 36.0365 12.5192 36.0121 12.5627 36.0022H20.9116C20.9613 36.0069 21.0076 36.0294 21.042 36.0656C21.0764 36.1018 21.0965 36.1492 21.0986 36.1991C21.0986 36.3861 21.01 36.3861 20.9116 36.3861Z" fill="url(#paint15_radial_3066_1181)"></path><path d="M17.9382 39.4579H15.6344C15.5135 39.4708 15.3913 39.4582 15.2756 39.4208C15.16 39.3834 15.0535 39.3221 14.9631 39.2408C14.8727 39.1596 14.8004 39.0602 14.7509 38.9492C14.7014 38.8382 14.6758 38.718 14.6758 38.5964C14.6758 38.4748 14.7014 38.3547 14.7509 38.2436C14.8004 38.1326 14.8727 38.0332 14.9631 37.952C15.0535 37.8707 15.16 37.8094 15.2756 37.772C15.3913 37.7346 15.5135 37.722 15.6344 37.7349H17.9382C18.1654 37.7349 18.3833 37.8252 18.5439 37.9858C18.7045 38.1464 18.7948 38.3643 18.7948 38.5915C18.8932 39.0739 18.5092 39.4579 17.9382 39.4579Z" fill="url(#paint16_linear_3066_1181)"></path><path d="M11.4108 7.13553C11.3222 7.13553 11.2237 7.23398 11.1252 7.23398L12.799 8.38589V11.0638C12.8876 11.1623 12.986 11.1623 12.986 11.2607V8.18898L11.4108 7.13553Z" fill="#4BBEED"></path><path d="M10.3573 7.5195C10.2588 7.5195 10.1702 7.61795 10.0718 7.61795L11.6077 8.67141V10.1088C11.7061 10.2073 11.7947 10.2073 11.7947 10.2959V8.57296L10.3573 7.5195Z" fill="#4BBEED"></path><path d="M9.58941 7.90347C9.51731 7.91296 9.45098 7.94787 9.40234 8.00193L10.4558 8.76002V9.43935C10.5264 9.44698 10.5923 9.4782 10.6429 9.52796V8.67141L9.58941 7.90347Z" fill="#4BBEED"></path><path d="M13.429 6.55466V7.61796L12.5626 6.75156C12.4642 6.75156 12.3756 6.85002 12.2771 6.85002L13.429 8.00193V11.7727L13.6161 11.9598V6.55466H13.429Z" fill="#4BBEED"></path><path d="M16.304 6.55466L16.1169 6.3676L15.1324 7.42105L14.1478 6.3676H14.0494L13.9509 6.46605L15.0635 7.70657V9.72487L14.581 9.24245V7.90348H14.3841V9.24245L15.1521 10.0104V13.1806C15.2505 13.2692 15.349 13.2692 15.349 13.3677V7.70657L16.304 6.55466Z" fill="#4BBEED"></path><path d="M16.2052 12.5013L16.4021 12.6982L16.6876 12.3142V11.9302L16.2052 12.5013Z" fill="#4BBEED"></path><path d="M16.7371 11.0638V10.7882L16.1661 11.369V10.2959L16.7371 9.72487V8.18899H16.6387V9.52796L16.0676 10.1088V7.90347H15.8707V13.4661H16.0676V11.497L16.7371 11.0638Z" fill="#4BBEED"></path><path d="M14.197 10.3943V12.4126L14.3841 12.5997V10.3943H14.197Z" fill="#4BBEED"></path><path d="M17.6528 11.3592V6.43651H17.4559V7.70656L16.8848 7.13553L16.7864 7.23398V7.32259L17.4559 8.00192V9.97099L16.7864 10.6405V10.9358L17.4559 10.2565V11.241L16.7864 11.9105V12.196L17.4559 11.5266V13.4956C17.5543 13.4956 17.6528 13.4956 17.6528 13.3972V11.3592Z" fill="#4BBEED"></path><path d="M16.8848 9.6264V8.18898H16.7864V9.72486L16.8848 9.6264Z" fill="#4BBEED"></path><path d="M18.9915 10.4928C18.9915 10.6799 19.09 10.8768 19.277 10.8768C19.3512 10.8721 19.4212 10.8406 19.4737 10.788C19.5263 10.7354 19.5579 10.6655 19.5625 10.5913C19.5431 10.5222 19.5068 10.4591 19.457 10.4076C19.4072 10.356 19.3453 10.3177 19.277 10.2959C19.1786 10.2959 19.09 10.2959 19.09 10.3944L18.2236 9.52796V6.3676H18.0365V9.52796L18.9915 10.4928Z" fill="#4BBEED"></path><path d="M18.125 13.2692C18.1749 13.2671 18.2223 13.2469 18.2585 13.2125C18.2947 13.1782 18.3172 13.1318 18.3219 13.0821V10.5913L19.6904 11.9302L19.8873 11.7333L18.125 10.0104V13.2692Z" fill="#4BBEED"></path><path d="M19.1788 6.46605H18.9917V9.05538L20.9115 10.9752L21.0986 10.7783L19.1788 8.95693V6.46605Z" fill="#4BBEED"></path><path d="M20.3307 6.65311H20.1437V8.95692L21.5811 10.3943L21.7682 10.2073L20.4292 8.81909V6.65311H20.3307Z" fill="#4BBEED"></path><path d="M21.0105 8.57295V6.85001C20.9121 6.85001 20.8136 6.85001 20.8136 6.75156V8.57295H21.0105Z" fill="#4BBEED"></path><path d="M21.3844 9.3409L21.5813 9.52796L21.8668 9.24245V7.03708C21.7947 7.0276 21.7284 6.99268 21.6798 6.93863V9.14399L21.3844 9.3409Z" fill="#4BBEED"></path><path d="M23.2154 7.61795C23.1408 7.60755 23.0716 7.57297 23.0185 7.5195L22.1521 8.38589V10.0104C22.2032 9.95421 22.2734 9.9191 22.349 9.91192V8.38589L23.2154 7.61795Z" fill="#4BBEED"></path><path d="M23.1169 8.38588C23.042 8.38834 22.9708 8.41921 22.9178 8.47224C22.8647 8.52526 22.8339 8.59646 22.8314 8.6714C22.8361 8.7456 22.8676 8.81555 22.9202 8.86812C22.9728 8.92069 23.0427 8.95227 23.1169 8.95692C23.1904 8.9503 23.2593 8.91809 23.3114 8.86591C23.3636 8.81373 23.3958 8.74489 23.4025 8.6714V8.57295L24.0719 7.90346C24.0008 7.89105 23.9354 7.85661 23.8849 7.80501L23.304 8.38588C23.2785 8.40941 23.2451 8.42248 23.2105 8.42248C23.1758 8.42248 23.1424 8.40941 23.1169 8.38588Z" fill="#4BBEED"></path><path d="M25.598 9.24245C24.7575 9.09693 23.8929 9.19603 23.1071 9.52796C22.346 9.91858 21.6379 10.4049 21.0002 10.9752C20.4193 11.5463 19.7499 12.1173 19.0804 12.7966C18.7705 13.1294 18.4159 13.4177 18.0269 13.6532C17.6062 13.8547 17.1445 13.9558 16.6781 13.9485C16.2159 13.9462 15.7595 13.8455 15.3391 13.6532C15.1224 13.5642 14.9251 13.4337 14.7583 13.2692C14.5712 13.0821 14.3743 12.9837 14.2857 12.7966L12.3658 10.9752C12.0803 10.6799 11.6963 10.3944 11.3813 10.1088C11.0533 9.85115 10.7004 9.62687 10.3278 9.43936C9.5568 9.09703 8.69214 9.02758 7.87634 9.24245C8.71579 8.95664 9.62622 8.95664 10.4657 9.24245C10.8682 9.43204 11.2536 9.65603 11.6176 9.91193C12.005 10.1141 12.3601 10.3729 12.671 10.6799C13.3405 11.2607 13.9214 11.8318 14.6401 12.4127C14.8272 12.5013 14.9256 12.6982 15.1225 12.7966C15.3194 12.8951 15.4967 13.0821 15.6936 13.0821C16.055 13.2428 16.4518 13.3072 16.8455 13.2692C17.2388 13.2989 17.6336 13.2348 17.9974 13.0821C18.3863 12.9154 18.7255 12.6509 18.9819 12.3142L20.8132 10.5913C21.491 10.0806 22.2323 9.66031 23.0185 9.3409C23.8445 9.02735 24.7505 8.99277 25.598 9.24245Z" fill="#34B4E8"></path><path d="M8.4375 8.57296C9.0452 8.16598 9.68764 7.81346 10.3573 7.5195C11.0374 7.20623 11.7421 6.94939 12.4643 6.75156C13.8792 6.38548 15.327 6.16122 16.7864 6.08208C18.2507 6.0681 19.7075 6.29426 21.0986 6.75156C22.5163 7.09983 23.8534 7.71826 25.0368 8.57296C23.762 7.87479 22.4108 7.32637 21.01 6.93862C16.7682 5.79515 12.246 6.38301 8.4375 8.57296Z" fill="#061E31"></path><path d="M19.1788 5.31413C19.1825 5.42556 19.1583 5.53615 19.1085 5.63587C19.0586 5.73559 18.9846 5.82128 18.8932 5.88516L18.7062 6.08207C18.6077 6.08207 18.5093 6.17068 18.4108 6.17068H15.0634C15.0107 6.17713 14.9573 6.17258 14.9064 6.15733C14.8556 6.14208 14.8085 6.11645 14.768 6.08207C14.6256 6.01067 14.506 5.90098 14.4225 5.76532C14.339 5.62966 14.295 5.47342 14.2955 5.31413C14.291 5.2012 14.3147 5.08893 14.3646 4.9875C14.4144 4.88607 14.4888 4.79869 14.581 4.73326L14.768 4.54619C14.8665 4.54619 14.9649 4.44774 15.0634 4.44774H18.4108C18.4643 4.44131 18.5185 4.4468 18.5695 4.46382C18.6206 4.48085 18.6673 4.50898 18.7062 4.54619C18.8568 4.60674 18.984 4.71402 19.0691 4.85226C19.1541 4.99051 19.1926 5.1524 19.1788 5.31413Z" stroke="#061E31" stroke-width="0.21" stroke-miterlimit="10"></path><path d="M18.0364 4.44774H15.4372C15.3133 4.43837 15.197 4.38426 15.1101 4.29549C15.0231 4.20673 14.9714 4.08938 14.9646 3.96531C14.9716 3.84228 15.0237 3.72613 15.1108 3.63898C15.198 3.55184 15.3141 3.49978 15.4372 3.49274H18.0364C18.1594 3.49978 18.2755 3.55184 18.3627 3.63898C18.4498 3.72613 18.5019 3.84228 18.5089 3.96531C18.5148 4.02929 18.5067 4.09377 18.4852 4.1543C18.4636 4.21483 18.4292 4.26995 18.3842 4.31584C18.3393 4.36173 18.2849 4.3973 18.2248 4.42008C18.1647 4.44285 18.1004 4.45229 18.0364 4.44774Z" fill="#107DBB" stroke="#081626" stroke-width="0.21" stroke-miterlimit="10"></path><path d="M19.1783 5.31414C19.1821 5.42557 19.1579 5.53616 19.108 5.63588C19.0582 5.7356 18.9842 5.82129 18.8928 5.88517L18.7058 6.08208C18.6523 6.02898 18.6177 5.95981 18.6073 5.88517V4.73327C18.6073 4.64466 18.6073 4.64466 18.7058 4.5462C18.8564 4.60675 18.9836 4.71403 19.0686 4.85227C19.1537 4.99052 19.1922 5.15241 19.1783 5.31414Z" fill="#107DBB" stroke="#081626" stroke-width="0.21" stroke-miterlimit="10"></path><path d="M14.8665 4.73327V5.86548C14.8665 5.96394 14.8665 5.96394 14.768 6.06239C14.6256 5.99099 14.506 5.8813 14.4225 5.74564C14.339 5.60998 14.295 5.45374 14.2955 5.29445C14.291 5.18152 14.3147 5.06925 14.3646 4.96782C14.4144 4.86639 14.4888 4.779 14.581 4.71357L14.768 4.5462C14.8196 4.5967 14.8541 4.66214 14.8665 4.73327Z" fill="#107DBB" stroke="#081626" stroke-width="0.21" stroke-miterlimit="10"></path><path d="M15.2505 6.1707C15.1869 6.17492 15.1231 6.16567 15.0633 6.14355C15.0035 6.12143 14.9491 6.08694 14.9035 6.04233C14.858 5.99772 14.8224 5.944 14.7991 5.88469C14.7757 5.82537 14.7651 5.7618 14.7681 5.69812V4.93018C14.7681 4.79962 14.8199 4.67441 14.9122 4.58209C15.0046 4.48978 15.1298 4.43791 15.2603 4.43791C15.3909 4.43791 15.5161 4.48978 15.6084 4.58209C15.7007 4.67441 15.7526 4.79962 15.7526 4.93018V5.78673C15.7453 5.84512 15.7265 5.90149 15.6972 5.95253C15.668 6.00357 15.6288 6.04827 15.5821 6.08401C15.5353 6.11976 15.4819 6.14583 15.425 6.16072C15.3681 6.1756 15.3087 6.17899 15.2505 6.1707Z" fill="#107DBB" stroke="#081626" stroke-width="0.21" stroke-miterlimit="10"></path><path d="M18.2235 6.1707C18.1583 6.1779 18.0924 6.17088 18.0302 6.1501C17.968 6.12932 17.9111 6.09528 17.8633 6.05035C17.8156 6.00541 17.7782 5.95064 17.7536 5.88983C17.7291 5.82901 17.7181 5.7636 17.7214 5.69812V4.93018C17.7214 4.79962 17.7732 4.67441 17.8656 4.58209C17.9579 4.48978 18.0831 4.43791 18.2136 4.43791C18.3442 4.43791 18.4694 4.48978 18.5617 4.58209C18.6541 4.67441 18.7059 4.79962 18.7059 4.93018V5.78673C18.6643 5.88618 18.5983 5.97352 18.514 6.04064C18.4297 6.10777 18.3297 6.1525 18.2235 6.1707Z" fill="#107DBB" stroke="#081626" stroke-width="0.21" stroke-miterlimit="10"></path><path d="M17.2688 6.1707C17.2048 6.17657 17.1404 6.16846 17.0798 6.14692C17.0193 6.12539 16.9642 6.09096 16.9183 6.046C16.8724 6.00104 16.8368 5.94665 16.8141 5.88657C16.7913 5.8265 16.7818 5.7622 16.7864 5.69812V4.93018C16.7864 4.79962 16.8383 4.67441 16.9306 4.58209C17.0229 4.48978 17.1481 4.43791 17.2787 4.43791C17.4092 4.43791 17.5344 4.48978 17.6267 4.58209C17.7191 4.67441 17.7709 4.79962 17.7709 4.93018V5.69812C17.776 5.76405 17.7662 5.83027 17.7423 5.89192C17.7184 5.95357 17.681 6.00909 17.6328 6.05441C17.5847 6.09973 17.527 6.13369 17.464 6.15381C17.401 6.17393 17.3343 6.1797 17.2688 6.1707Z" fill="#107DBB" stroke="#081626" stroke-width="0.21" stroke-miterlimit="10"></path><path d="M16.206 6.1707C16.1444 6.1722 16.0832 6.16085 16.0262 6.13737C15.9693 6.1139 15.9179 6.0788 15.8752 6.03433C15.8326 5.98986 15.7998 5.93699 15.7787 5.8791C15.7577 5.82121 15.7489 5.75957 15.7531 5.69812V4.93018C15.7531 4.79962 15.8049 4.67441 15.8973 4.58209C15.9896 4.48978 16.1148 4.43791 16.2453 4.43791C16.3759 4.43791 16.5011 4.48978 16.5934 4.58209C16.6857 4.67441 16.7376 4.79962 16.7376 4.93018V5.69812C16.7868 5.98363 16.5013 6.1707 16.206 6.1707Z" fill="#107DBB" stroke="#081626" stroke-width="0.21" stroke-miterlimit="10"></path><path d="M18.2239 4.93018V5.4126" stroke="#4BBEED" stroke-width="0.21" stroke-linecap="round" stroke-linejoin="round"></path><path d="M17.2688 4.93018V5.4126" stroke="#4BBEED" stroke-width="0.21" stroke-linecap="round" stroke-linejoin="round"></path><path d="M16.2052 4.93018V5.4126" stroke="#4BBEED" stroke-width="0.21" stroke-linecap="round" stroke-linejoin="round"></path><path d="M15.25 4.93018V5.4126" stroke="#4BBEED" stroke-width="0.21" stroke-linecap="round" stroke-linejoin="round"></path><path d="M15.4375 3.89641H17.9382" stroke="#4BBEED" stroke-width="0.11" stroke-linecap="round" stroke-linejoin="round"></path><defs><linearGradient id="paint0_linear_3066_1181" x1="2.05816" y1="22.5042" x2="4.49981" y2="33.6196" gradientUnits="userSpaceOnUse"><stop stop-color="#7799A5"></stop><stop offset="0.51" stop-color="#EEF3F6"></stop><stop offset="1" stop-color="#3A6177"></stop></linearGradient><linearGradient id="paint1_linear_3066_1181" x1="3.45568" y1="28.8249" x2="3.85934" y2="31.1976" gradientUnits="userSpaceOnUse"><stop stop-color="#E5EEF2"></stop><stop offset="1" stop-color="#7294A2"></stop></linearGradient><linearGradient id="paint2_linear_3066_1181" x1="8.06371" y1="16.7446" x2="3.2887" y2="17.9753" gradientUnits="userSpaceOnUse"><stop stop-color="#E5EEF2"></stop><stop offset="1" stop-color="#7294A2"></stop></linearGradient><linearGradient id="paint3_linear_3066_1181" x1="31.4557" y1="22.5042" x2="29.0141" y2="33.6294" gradientUnits="userSpaceOnUse"><stop stop-color="#7799A5"></stop><stop offset="0.51" stop-color="#EEF3F6"></stop><stop offset="1" stop-color="#3A6177"></stop></linearGradient><linearGradient id="paint4_linear_3066_1181" x1="30.0181" y1="28.8249" x2="29.6144" y2="31.1976" gradientUnits="userSpaceOnUse"><stop stop-color="#E5EEF2"></stop><stop offset="1" stop-color="#7294A2"></stop></linearGradient><radialGradient id="paint5_radial_3066_1181" cx="0" cy="0" r="1" gradientUnits="userSpaceOnUse" gradientTransform="translate(17.311 8.57838) scale(6.38127)"><stop stop-color="#00B8F0"></stop><stop offset="1" stop-color="#005886"></stop></radialGradient><linearGradient id="paint6_linear_3066_1181" x1="25.4109" y1="16.7446" x2="30.1859" y2="17.9753" gradientUnits="userSpaceOnUse"><stop stop-color="#E5EEF2"></stop><stop offset="1" stop-color="#7294A2"></stop></linearGradient><linearGradient id="paint7_linear_3066_1181" x1="9.89456" y1="33.9445" x2="5.95642" y2="35.4016" gradientUnits="userSpaceOnUse"><stop stop-color="#E5EEF2"></stop><stop offset="1" stop-color="#7294A2"></stop></linearGradient><linearGradient id="paint8_linear_3066_1181" x1="17.0328" y1="24.5126" x2="-5.08971" y2="32.1526" gradientUnits="userSpaceOnUse"><stop stop-color="white"></stop><stop offset="1" stop-color="#A4C4D1"></stop></linearGradient><linearGradient id="paint9_linear_3066_1181" x1="23.5702" y1="33.9839" x2="27.4985" y2="35.4508" gradientUnits="userSpaceOnUse"><stop stop-color="#E5EEF2"></stop><stop offset="1" stop-color="#7294A2"></stop></linearGradient><linearGradient id="paint10_linear_3066_1181" x1="16.4319" y1="24.5421" x2="38.5545" y2="32.1821" gradientUnits="userSpaceOnUse"><stop stop-color="white"></stop><stop offset="1" stop-color="#A4C4D1"></stop></linearGradient><linearGradient id="paint11_linear_3066_1181" x1="4.00697" y1="25.5562" x2="29.4572" y2="25.5562" gradientUnits="userSpaceOnUse"><stop stop-color="#1F5F88"></stop><stop offset="0.52" stop-color="#1ABDCC"></stop><stop offset="1" stop-color="#1C5B85"></stop></linearGradient><linearGradient id="paint12_linear_3066_1181" x1="4.20431" y1="21.5688" x2="29.2411" y2="21.5688" gradientUnits="userSpaceOnUse"><stop stop-color="#4CC7ED"></stop><stop offset="1" stop-color="#1ABDCC"></stop></linearGradient><radialGradient id="paint13_radial_3066_1181" cx="0" cy="0" r="1" gradientUnits="userSpaceOnUse" gradientTransform="translate(16.6552 26.9204) scale(6.2014)"><stop stop-color="white"></stop><stop offset="1" stop-color="white" stop-opacity="0"></stop></radialGradient><radialGradient id="paint14_radial_3066_1181" cx="0" cy="0" r="1" gradientUnits="userSpaceOnUse" gradientTransform="translate(16.0583 36.2384) scale(5.13928 5.13928)"><stop stop-color="#25BDCC"></stop><stop offset="1" stop-color="#005786"></stop></radialGradient><radialGradient id="paint15_radial_3066_1181" cx="0" cy="0" r="1" gradientUnits="userSpaceOnUse" gradientTransform="translate(16.3955 35.551) scale(3.06644 3.06643)"><stop stop-color="#25BDCC"></stop><stop offset="1" stop-color="#005786"></stop></radialGradient><linearGradient id="paint16_linear_3066_1181" x1="16.7469" y1="40.7082" x2="16.806" y2="38.1681" gradientUnits="userSpaceOnUse"><stop stop-color="#E5EEF2"></stop><stop offset="1" stop-color="#7294A2"></stop></linearGradient></defs></svg>