<svg xmlns="http://www.w3.org/2000/svg" width="128" height="128" viewBox="20 22 24 26" fill="none">
  <path
    fill-rule="evenodd"
    clip-rule="evenodd"
    d="M38.8487 34.3358C35.9953 34.3358 33.6808 32.0226 33.6808 29.1679C33.6808 26.3145 35.994 24 38.8487 24C41.7035 24 44.0166 26.3145 44.0166 29.1679C44.0166 32.0213 41.7021 34.3358 38.8487 34.3358ZM44.0134 42.649C44.0134 41.9558 43.8758 41.2694 43.6103 40.6293C43.3447 39.9892 42.9538 39.4063 42.4622 38.916C41.9705 38.4257 41.3876 38.0376 40.7448 37.772C40.1019 37.5064 39.4199 37.4123 38.6776 37.3726C37.6243 37.3162 36.44 37.1387 35.4564 36.8405C34.4493 36.5351 33.5892 35.8735 32.8456 35.1326C32.102 34.3904 31.473 33.5208 31.1323 32.5286C30.7903 31.5328 30.6733 30.3163 30.6011 29.275C30.5296 28.244 30.2879 27.2103 29.705 26.3428C29.1221 25.4753 28.294 24.7997 27.327 24.4007C26.3614 24.0003 25.2978 23.8982 24.2709 24.1024C23.244 24.3081 22.3015 24.812 21.562 25.5515C20.8225 26.291 20.3199 27.2321 20.117 28.2577C19.9141 29.2818 20.0203 30.3427 20.4221 31.307C20.8238 32.2712 21.5034 33.0952 22.3751 33.674C23.2137 34.2309 24.273 34.4932 25.3168 34.5592C26.412 34.6286 27.5494 34.7737 28.58 35.0849C29.5874 35.3892 30.4472 36.0519 31.1908 36.7928C31.9344 37.535 32.5623 38.405 32.9041 39.3968C33.2429 40.3796 33.4034 41.6027 33.4312 42.6504C33.4523 43.4457 33.5524 44.0436 33.8139 44.6919C34.0754 45.3402 34.4635 45.9312 34.9566 46.4283C35.4496 46.9254 36.0352 47.3218 36.6821 47.5914C37.329 47.8611 38.0236 48 38.7237 48C39.4237 48 40.1183 47.8611 40.7652 47.5914C41.4121 47.3218 41.9991 46.9268 42.4908 46.4283C42.9838 45.9312 43.3719 45.3402 43.6334 44.6919C43.8949 44.0436 44.0256 43.3491 44.0161 42.6504H44.0134V42.649ZM20.0166 42.8321C20.0166 45.6869 22.3311 48 25.1845 48C28.0379 48 30.3524 45.6855 30.3524 42.8321C30.3524 39.9787 28.0379 37.6642 25.1845 37.6642C22.3311 37.6642 20.0166 39.9787 20.0166 42.8321Z"
    fill="#111827"
  />
</svg>
