<?xml version="1.0" encoding="UTF-8"?>
<svg width="128px" height="128px" viewBox="0 0 128 128" version="1.1" xmlns="http://www.w3.org/2000/svg" xmlns:xlink="http://www.w3.org/1999/xlink">
    <!-- Generator: Sketch 62 (91390) - https://sketch.com -->
    <title>Artboard</title>
    <desc>Created with Sketch.</desc>
    <g id="Artboard" stroke="none" stroke-width="1" fill="none" fill-rule="evenodd">
        <path d="M87.9004353,122.770403 L87.9093306,76.2268713 L40.9955601,76.2193598 L40.9866649,122.759926 C40.9852812,125.646326 38.6464321,127.984977 35.760033,127.984977 L21.2236668,127.982012 C18.3386514,127.980431 16,125.641779 16,122.75538 L16.0239183,5.22505054 C16.0254996,2.34003512 18.364151,0 21.2505502,0 L35.7855326,0.00296507237 C38.6719317,0.00434877282 41.0105831,2.34458156 41.0105831,5.22939931 L41.0001066,54.1086174 L87.913877,54.119094 L87.9241559,5.2398759 C87.9241559,2.35347678 90.2643887,0.0148253619 93.1507878,0.0148253619 L107.68577,0.0177904342 C110.570588,0.0193718062 112.910821,2.35802322 112.910821,5.24442234 L112.885519,122.774949 C112.885519,125.661349 110.545286,128 107.658887,128 L93.1239045,127.997035 C90.2375054,127.995454 87.898854,125.656802 87.9004353,122.770403" id="Fill-265-Copy-2" fill="#EEAA22"></path>
    </g>
</svg>