

<svg width="16" height="16" viewBox="0 0 16 16" fill="none" xmlns="http://www.w3.org/2000/svg">
  <style>
    path#pill {
      fill: #07120C;
    }
    path#lissajous {
      fill: white;
    }

    @media (prefers-color-scheme: dark) {
      path#pill {
        fill: white;
      }
      path#lissajous {
        fill: #07120C;
      }
    }
  </style>

<path id="pill" d="M0.829736 12.682C1.11647 13.2759 1.77124 14.3725 3.11405 14.9543C3.80882 15.2552 5.65305 15.3015 6.86643 15.2968L9.13999 15.2968C10.3534 15.3014 12.1924 15.2547 12.8859 14.9543C14.2288 14.3725 14.8835 13.2759 15.1703 12.682C15.4882 12.0236 15.6575 11.3501 15.7572 10.8333C15.9599 9.78235 16 8.6918 16 8.00022C16 7.30863 15.9599 6.21765 15.7572 5.1667C15.6575 4.64986 15.4881 3.97642 15.1702 3.31802C14.8835 2.72414 14.2287 1.62747 12.8859 1.04575C12.1924 0.745304 10.3534 0.698633 9.13997 0.703179L6.86642 0.703204C5.65303 0.698469 3.8088 0.744774 3.11404 1.04575C1.77122 1.62747 1.11646 2.72414 0.829717 3.31802C0.511826 3.97642 0.342468 4.64986 0.242785 5.1667C0.0400856 6.21765 0 7.30863 0 8.00022C0 8.6918 0.0401043 9.78235 0.242804 10.8333C0.342487 11.3501 0.511844 12.0236 0.829736 12.682Z" />
<path id="lissajous" fill-rule="evenodd" clip-rule="evenodd" d="M6.26238 6.15593C6.18776 5.89515 6.10791 5.63592 6.02345 5.39514C5.87556 4.97354 5.69575 4.55253 5.47355 4.25414C5.3623 4.10474 5.21428 3.94992 5.01976 3.85688C4.80464 3.75399 4.56016 3.74106 4.32341 3.84367C3.961 4.00075 3.72848 4.32518 3.57551 4.64218C3.41834 4.96787 3.31123 5.35577 3.23621 5.7449C3.08574 6.52549 3.0481 7.40056 3.0481 8.00791C3.0481 8.61499 3.08572 9.50287 3.23609 10.2887C3.31097 10.6801 3.41821 11.0704 3.57658 11.3943C3.72985 11.7078 3.96939 12.0369 4.3506 12.1749C4.59167 12.2622 4.83007 12.2323 5.03323 12.1282C5.22009 12.0324 5.36576 11.881 5.47825 11.7315C5.70276 11.4332 5.88683 11.0174 6.0383 10.5985C6.1182 10.3775 6.19312 10.1436 6.26273 9.90804C6.32419 10.1087 6.38998 10.3077 6.46015 10.4985C6.60959 10.9048 6.78997 11.3055 7.00937 11.613C7.21627 11.903 7.54259 12.2265 8.00473 12.2265C8.46688 12.2265 8.79319 11.903 9.00009 11.613C9.2195 11.3055 9.39987 10.9048 9.54932 10.4985C9.61948 10.3077 9.68527 10.1087 9.74673 9.90804C9.81635 10.1436 9.89126 10.3775 9.97116 10.5985C10.1226 11.0174 10.3067 11.4332 10.5312 11.7315C10.6437 11.881 10.7894 12.0324 10.9762 12.1282C11.1794 12.2323 11.4178 12.2622 11.6589 12.1749C12.0401 12.0369 12.2796 11.7078 12.4329 11.3943C12.5912 11.0704 12.6985 10.6801 12.7734 10.2887C12.9237 9.50287 12.9614 8.61499 12.9614 8.00791C12.9614 7.40056 12.9237 6.52549 12.7732 5.7449C12.6982 5.35577 12.5911 4.96787 12.434 4.64218C12.281 4.32518 12.0485 4.00075 11.6861 3.84367C11.4493 3.74106 11.2048 3.75399 10.9897 3.85688C10.7952 3.94992 10.6472 4.10474 10.5359 4.25414C10.3137 4.55253 10.1339 4.97354 9.98602 5.39514C9.90156 5.63592 9.82171 5.89515 9.74708 6.15593C9.6815 5.93678 9.61148 5.71913 9.537 5.51239C9.39031 5.1052 9.2138 4.70241 8.99781 4.39321C8.79425 4.1018 8.47004 3.77336 8.00473 3.77336C7.53942 3.77336 7.21521 4.1018 7.01165 4.39321C6.79567 4.70241 6.61915 5.1052 6.47246 5.51239C6.39798 5.71913 6.32796 5.93678 6.26238 6.15593ZM9.26163 8.01419C9.22773 7.88567 9.19258 7.74821 9.15589 7.60468C9.01405 7.04996 8.84905 6.40463 8.64356 5.83425C8.50625 5.45307 8.36338 5.14329 8.21929 4.93701C8.09358 4.75704 8.01945 4.72811 8.00473 4.72369C7.99002 4.72811 7.91589 4.75704 7.79018 4.93701C7.64609 5.14329 7.50322 5.45307 7.3659 5.83425C7.16042 6.40463 6.99542 7.04996 6.85358 7.60468C6.81688 7.74821 6.78173 7.88567 6.74784 8.01419C6.75258 8.034 6.75737 8.05405 6.76222 8.07433C6.907 8.67972 7.10021 9.48768 7.35142 10.1707C7.49045 10.5487 7.63616 10.8565 7.78241 11.0615C7.91509 11.2474 7.99201 11.273 8.00473 11.2764C8.01746 11.273 8.09437 11.2474 8.22706 11.0615C8.37331 10.8565 8.51901 10.5487 8.65804 10.1707C8.90925 9.48768 9.10247 8.67973 9.24724 8.07434C9.25209 8.05406 9.25689 8.03401 9.26163 8.01419ZM10.2412 8.01547C10.2474 8.04164 10.2537 8.06831 10.2602 8.09546C10.4058 8.71116 10.609 9.56977 10.8642 10.2756C11.008 10.6732 11.1536 10.9792 11.29 11.1605C11.3269 11.2095 11.3563 11.2401 11.3769 11.2586C11.4251 11.2233 11.4979 11.1447 11.5798 10.9772C11.6857 10.7606 11.7732 10.4626 11.8406 10.1103C11.9749 9.40891 12.0117 8.58865 12.0117 8.00791C12.0117 7.42744 11.9749 6.62034 11.8408 5.92464C11.7735 5.57564 11.6858 5.27687 11.5787 5.05489C11.4957 4.88286 11.4182 4.79228 11.3603 4.74696C11.344 4.76343 11.3229 4.7873 11.2976 4.82131C11.1657 4.99841 11.024 5.30495 10.8821 5.70946C10.683 6.27726 10.5185 6.92766 10.3768 7.48769C10.3292 7.67603 10.2841 7.85415 10.2412 8.01547ZM5.76825 8.01547C5.72533 7.85415 5.68028 7.67603 5.63264 7.48769C5.491 6.92766 5.3265 6.27726 5.12733 5.70946C4.98544 5.30495 4.84377 4.99841 4.71188 4.82131C4.68655 4.7873 4.66547 4.76343 4.64917 4.74696C4.59122 4.79228 4.5138 4.88286 4.43078 5.05489C4.32366 5.27687 4.23597 5.57564 4.16869 5.92464C4.03459 6.62034 3.99774 7.42744 3.99774 8.00791C3.99774 8.58865 4.03461 9.40891 4.16882 10.1103C4.23622 10.4626 4.32379 10.7606 4.42971 10.9772C4.5116 11.1447 4.58435 11.2233 4.63252 11.2586C4.65312 11.2401 4.68255 11.2095 4.71946 11.1605C4.85587 10.9792 5.00147 10.6732 5.14524 10.2756C5.40044 9.56977 5.60362 8.71116 5.74931 8.09546C5.75574 8.06831 5.76205 8.04164 5.76825 8.01547Z"/>
</svg>
