<svg xmlns="http://www.w3.org/2000/svg" width="64" height="64" fill="none"><path fill="#fff" d="M61.44 0H2.56A2.56 2.56 0 0 0 0 2.56v58.88A2.56 2.56 0 0 0 2.56 64h58.88A2.56 2.56 0 0 0 64 61.44V2.56A2.56 2.56 0 0 0 61.44 0Z"/><path fill="#323DD6" d="M35.599 52.383c-2.054-6.21 2.724-15.115 3.6-16.88l-19.176-6.512c-.312-5.385-.187-14.56 1.425-22.076l27.434 9.319c-1.586 10.977.093 23.404.118 29.694.056 14.263-11.234 13.007-13.401 6.455Z"/><path fill="#649BE8" d="M15.456 48.155c-6.833-2.373-5.902-12.274-.893-18.813l21.731 7.373c-.185.395-5.866 11.126-1.896 17.998l-18.942-6.558Z"/></svg>