<svg width="36" height="36" viewBox="0 0 36 36" fill="none" xmlns="http://www.w3.org/2000/svg">
<path d="M18 0C27.9411 7.34454e-06 36 8.05888 36 18C36 22.1996 34.5611 26.0629 32.1504 29.125L33.6084 34.4492C33.7613 35.0077 33.303 35.5444 32.7275 35.4805L31.4472 35.3379C28.3966 34.9989 25.3162 35.05 22.2803 35.4863C20.9083 35.821 19.475 36 18 36C8.05887 36 9.66448e-08 27.9411 0 18C0 8.05888 8.05887 0 18 0Z" fill="#00F0A0"/>
<path d="M23.8151 24.6266C19.3194 28.3454 13.5514 30.58 7.2612 30.58C5.80711 30.58 4.381 30.4606 2.99197 30.2309C6.24819 28.8948 9.20817 26.9849 11.746 24.6266H23.8151Z" fill="#00F0A0"/>
<path d="M23.8152 24.1266C24.026 24.1267 24.2145 24.2593 24.2859 24.4577C24.3571 24.6559 24.2959 24.8781 24.1336 25.0124C19.5517 28.8023 13.672 31.0797 7.26153 31.0797C5.78002 31.0797 4.32588 30.9584 2.90997 30.7243C2.68962 30.6876 2.52006 30.5088 2.49493 30.2868C2.46997 30.0648 2.59586 29.853 2.80254 29.7682C6.00226 28.4552 8.9117 26.5783 11.4061 24.2604L11.4803 24.2028C11.5593 24.1532 11.6514 24.1266 11.7459 24.1266H23.8152ZM11.9393 25.1266C9.82448 27.0656 7.42653 28.7 4.81426 29.9626C5.6195 30.0393 6.43593 30.0797 7.26153 30.0797C12.9138 30.0797 18.1347 28.2398 22.3611 25.1266H11.9393Z" fill="black"/>
<path d="M20.7895 22.6975L24.9653 22.9299L26.5503 21.5872C25.6434 23.003 24.46 24.2244 23.0737 25.1721C21.0944 26.525 18.7047 27.323 16.1303 27.3401H15.9624C15.9367 27.3399 15.9109 27.3397 15.8852 27.3391C12.1632 27.3122 8.66473 26.3445 5.61569 24.6624C6.23485 24.4343 6.84061 24.1742 7.43015 23.8831C9.75458 22.7359 11.831 21.1151 13.5161 19.1467L20.7895 22.6975Z" fill="#00F0A0"/>
<path d="M24.2398 8.89876C25.3197 8.89877 26.3507 9.10823 27.2945 9.4886C28.4751 9.96418 29.5194 10.7072 30.3521 11.6429C29.2526 12.285 28.5142 13.4779 28.5142 14.8431V14.8724C28.5142 17.6015 27.6354 20.1249 26.148 22.1781L24.8502 23.2777L20.6734 23.0462L13.2681 19.43C14.6591 17.8682 15.7996 16.0761 16.6129 14.1185C16.647 14.0362 16.6813 13.9535 16.7144 13.8704C17.9613 10.9476 20.8611 8.89876 24.2398 8.89876Z" fill="white"/>
<path d="M28.0141 14.8431C28.0141 13.5181 28.6278 12.3375 29.5845 11.5677C28.876 10.8805 28.0377 10.327 27.1079 9.95247C26.2225 9.59563 25.2545 9.39876 24.2397 9.39876C21.0684 9.39877 18.3454 11.3215 17.1743 14.0667L17.1733 14.0658C17.1407 14.1476 17.1082 14.2291 17.0747 14.3099C15.2557 18.6889 11.8459 22.2601 7.65086 24.3304C7.37532 24.4665 7.09609 24.5952 6.81395 24.7181C9.55878 26.0542 12.6356 26.8157 15.8891 26.8392H15.896L15.9663 26.8402H16.1274C18.599 26.8237 20.8918 26.0585 22.7915 24.7601C25.9456 22.6041 28.0141 18.9794 28.0141 14.8724V14.8431ZM29.0141 14.8724C29.0141 19.3234 26.7709 23.2509 23.3559 25.5853C21.2971 26.9925 18.8111 27.8223 16.1343 27.8402H15.9595C15.9383 27.84 15.905 27.8398 15.8745 27.8392V27.8382C12.0698 27.8095 8.49262 26.8202 5.3745 25.0999C5.20327 25.0055 5.10211 24.8203 5.11668 24.6253C5.13146 24.4302 5.25925 24.2614 5.44285 24.1937C6.04534 23.9717 6.63472 23.7182 7.20848 23.4349L7.57957 23.2464C11.3919 21.2567 14.4815 17.9472 16.1518 13.9261C16.185 13.8461 16.2175 13.7661 16.2495 13.6859L16.2544 13.6741C17.5771 10.5736 20.6537 8.39877 24.2397 8.39876C25.3846 8.39876 26.4789 8.62091 27.4809 9.02473L27.9438 9.22688C29.0079 9.72967 29.9532 10.4423 30.7261 11.3109C30.8256 11.4228 30.8697 11.574 30.8462 11.722C30.8226 11.8699 30.7333 11.999 30.604 12.0745C29.6517 12.6307 29.0141 13.6629 29.0141 14.8431V14.8724Z" fill="black"/>
<path d="M20.2823 22.9826L5.34154 15.2602C3.94351 14.5376 3.65529 12.6623 4.7718 11.5532L4.85818 11.4674C5.09339 11.2338 5.43538 11.1434 5.75532 11.2302L19.2527 14.8947" fill="white"/>
<path d="M4.50536 11.1123C4.86729 10.7528 5.39388 10.6144 5.88622 10.7481L19.3833 14.4121C19.6497 14.4845 19.8071 14.759 19.7348 15.0254C19.6625 15.2919 19.3881 15.4493 19.1216 15.377L5.6245 11.7129C5.47693 11.6728 5.31891 11.7145 5.21043 11.8223L5.1245 11.9082C4.24864 12.7782 4.47413 14.2495 5.57079 14.8164L20.5122 22.5381C20.7574 22.6649 20.8528 22.9667 20.7261 23.2119C20.5993 23.4572 20.2975 23.5536 20.0522 23.4268L5.1118 15.7041C3.41266 14.8257 3.06234 12.5463 4.41942 11.1983L4.50536 11.1123Z" fill="black"/>
<path d="M19.5892 15.2629C19.5934 15.259 19.5993 15.2547 19.6048 15.2492L19.596 15.2589L19.5863 15.2677C19.2018 15.6142 18.8714 16.0342 18.6175 16.5216C17.4793 18.7068 18.3278 21.4009 20.513 22.5392C22.6479 23.6511 25.2686 22.8662 26.4495 20.7921C26.5862 20.5525 26.8913 20.4692 27.1312 20.6056C27.3711 20.7422 27.4552 21.0473 27.3187 21.2873C25.8727 23.8268 22.6647 24.7872 20.0511 23.4259C17.3763 22.0326 16.3368 18.7347 17.7298 16.0597C18.0396 15.4649 18.4446 14.9497 18.9163 14.5246V14.5265C19.082 14.3749 19.3343 14.3487 19.5296 14.4787C19.7594 14.6318 19.8215 14.9423 19.6683 15.172C19.6369 15.219 19.6036 15.2497 19.5892 15.2629Z" fill="black"/>
<ellipse cx="26.252" cy="12.03" rx="0.812001" ry="0.812002" fill="black"/>
</svg>
