<svg width="445" height="109" viewBox="0 0 445 109" fill="none" xmlns="http://www.w3.org/2000/svg">
    <path
        d="M169.848 86.9771C165.288 86.9771 161.217 86 157.634 84.0457C154.117 82.0263 151.348 79.2577 149.329 75.74C147.374 72.1572 146.397 68.0858 146.397 63.5258C146.397 62.0275 146.886 60.8224 147.863 59.9104C148.84 58.9332 150.045 58.4447 151.478 58.4447C152.977 58.4447 154.182 58.9332 155.094 59.9104C156.071 60.8224 156.559 62.0275 156.559 63.5258C156.559 66.3269 157.113 68.8023 158.221 70.952C159.393 73.1018 160.957 74.7955 162.911 76.0332C164.93 77.2057 167.243 77.792 169.848 77.792C172.454 77.792 174.767 77.2057 176.786 76.0332C178.806 74.7955 180.369 73.1018 181.476 70.952C182.649 68.8023 183.235 66.3269 183.235 63.5258V14.7665C183.235 13.2682 183.691 12.0631 184.603 11.1511C185.58 10.174 186.786 9.68538 188.219 9.68538C189.717 9.68538 190.955 10.174 191.932 11.1511C192.909 12.0631 193.398 13.2682 193.398 14.7665V63.5258C193.398 68.0858 192.388 72.1572 190.368 75.74C188.349 79.2577 185.58 82.0263 182.063 84.0457C178.545 86 174.474 86.9771 169.848 86.9771ZM234.435 86.4886C229.94 86.4886 225.901 85.544 222.319 83.6549C218.801 81.7006 216 78.8669 213.915 75.1537C211.896 71.4406 210.886 66.8806 210.886 61.4738V37.4362C210.886 36.003 211.342 34.8304 212.254 33.9184C213.231 32.9413 214.436 32.4527 215.869 32.4527C217.303 32.4527 218.475 32.9413 219.387 33.9184C220.364 34.8304 220.853 36.003 220.853 37.4362V61.4738C220.853 65.1218 221.537 68.1509 222.905 70.5612C224.273 72.9063 226.129 74.6652 228.475 75.8377C230.82 76.9452 233.458 77.4989 236.389 77.4989C239.191 77.4989 241.666 76.9452 243.816 75.8377C246.031 74.7303 247.789 73.232 249.092 71.3429C250.395 69.4538 251.047 67.3366 251.047 64.9915H257.202C257.202 69.0303 256.193 72.6783 254.173 75.9355C252.219 79.1926 249.516 81.7657 246.063 83.6549C242.676 85.544 238.8 86.4886 234.435 86.4886ZM256.03 86C254.597 86 253.392 85.544 252.415 84.632C251.503 83.6549 251.047 82.4497 251.047 81.0166V37.4362C251.047 35.9379 251.503 34.7327 252.415 33.8207C253.392 32.9087 254.597 32.4527 256.03 32.4527C257.528 32.4527 258.733 32.9087 259.645 33.8207C260.557 34.7327 261.013 35.9379 261.013 37.4362V81.0166C261.013 82.4497 260.557 83.6549 259.645 84.632C258.733 85.544 257.528 86 256.03 86ZM323.711 86.0977C322.277 86.0977 321.072 85.6417 320.095 84.7297C319.183 83.7526 318.727 82.5474 318.727 81.1143V57.0767C318.727 53.3635 318.043 50.3344 316.675 47.9893C315.307 45.6441 313.451 43.9178 311.105 42.8104C308.825 41.6379 306.187 41.0516 303.191 41.0516C300.455 41.0516 297.979 41.6053 295.764 42.7127C293.55 43.8201 291.791 45.3184 290.488 47.2076C289.185 49.0315 288.534 51.1487 288.534 53.559H282.378C282.378 49.455 283.355 45.807 285.309 42.615C287.328 39.3579 290.064 36.7847 293.517 34.8956C296.97 33.0065 300.846 32.0619 305.145 32.0619C309.64 32.0619 313.646 33.039 317.164 34.9933C320.747 36.8824 323.548 39.6836 325.567 43.3967C327.652 47.1098 328.694 51.6698 328.694 57.0767V81.1143C328.694 82.5474 328.205 83.7526 327.228 84.7297C326.316 85.6417 325.144 86.0977 323.711 86.0977ZM283.55 86.0977C282.117 86.0977 280.912 85.6417 279.935 84.7297C279.023 83.7526 278.567 82.5474 278.567 81.1143V37.5339C278.567 36.0356 279.023 34.8304 279.935 33.9184C280.912 33.0064 282.117 32.5505 283.55 32.5505C285.048 32.5505 286.254 33.0064 287.166 33.9184C288.078 34.8304 288.534 36.0356 288.534 37.5339V81.1143C288.534 82.5474 288.078 83.7526 287.166 84.7297C286.254 85.6417 285.048 86.0977 283.55 86.0977ZM351.133 86C349.7 86 348.495 85.544 347.518 84.632C346.606 83.6549 346.15 82.4497 346.15 81.0166V37.5339C346.15 36.0356 346.606 34.8304 347.518 33.9184C348.495 33.0064 349.7 32.5505 351.133 32.5505C352.631 32.5505 353.837 33.0064 354.749 33.9184C355.661 34.8304 356.117 36.0356 356.117 37.5339V81.0166C356.117 82.4497 355.661 83.6549 354.749 84.632C353.837 85.544 352.631 86 351.133 86ZM351.133 23.8539C349.374 23.8539 347.843 23.2351 346.541 21.9973C345.303 20.6945 344.684 19.1636 344.684 17.4048C344.684 15.6459 345.303 14.1477 346.541 12.9099C347.843 11.6071 349.374 10.9557 351.133 10.9557C352.892 10.9557 354.39 11.6071 355.628 12.9099C356.931 14.1477 357.582 15.6459 357.582 17.4048C357.582 19.1636 356.931 20.6945 355.628 21.9973C354.39 23.2351 352.892 23.8539 351.133 23.8539ZM396.937 86.3909C392.182 86.3909 387.915 85.2183 384.137 82.8732C380.358 80.4629 377.362 77.2383 375.147 73.1995C372.997 69.0955 371.922 64.4704 371.922 59.3241C371.922 54.1778 373.095 49.5527 375.44 45.4487C377.85 41.3447 381.075 38.1202 385.114 35.775C389.218 33.3647 393.81 32.1596 398.892 32.1596C403.973 32.1596 408.533 33.3647 412.572 35.775C416.61 38.1202 419.802 41.3447 422.147 45.4487C424.558 49.5527 425.763 54.1778 425.763 59.3241H421.952C421.952 64.4704 420.845 69.0955 418.63 73.1995C416.48 77.2383 413.516 80.4629 409.738 82.8732C405.96 85.2183 401.693 86.3909 396.937 86.3909ZM398.892 77.5966C402.214 77.5966 405.178 76.8149 407.784 75.2515C410.389 73.6229 412.441 71.4406 413.94 68.7046C415.438 65.9035 416.187 62.7766 416.187 59.3241C416.187 55.8064 415.438 52.6795 413.94 49.9435C412.441 47.1424 410.389 44.9601 407.784 43.3967C405.178 41.7681 402.214 40.9539 398.892 40.9539C395.634 40.9539 392.67 41.7681 390 43.3967C387.394 44.9601 385.309 47.1424 383.746 49.9435C382.248 52.6795 381.498 55.8064 381.498 59.3241C381.498 62.7766 382.248 65.9035 383.746 68.7046C385.309 71.4406 387.394 73.6229 390 75.2515C392.67 76.8149 395.634 77.5966 398.892 77.5966ZM420.779 86.0977C419.346 86.0977 418.141 85.6417 417.164 84.7297C416.252 83.7526 415.796 82.5474 415.796 81.1143V66.1641L417.653 55.8064L425.763 59.3241V81.1143C425.763 82.5474 425.274 83.7526 424.297 84.7297C423.385 85.6417 422.213 86.0977 420.779 86.0977Z"
        fill="url(#paint0_linear_54_58)" />
    <path
        d="M99.2374 67.4149C98.7286 71.9855 96.6505 76.073 93.5449 79.1647C89.9468 82.7429 84.9929 84.9466 79.5039 84.9499H39.0126C33.5236 84.9466 28.5729 82.7429 24.9716 79.1647C21.3735 75.5833 19.1576 70.66 19.1543 65.2014V50.3141C19.1576 44.8554 21.3735 39.9289 24.9716 36.3507C27.2171 34.1209 29.9846 32.4232 33.0804 31.4634V67.4149L59.2582 65.6845L99.2374 67.4149Z"
        fill="#10AFAB" />
    <path
        d="M93.4314 31.2465C92.8819 30.7 92.306 30.1796 91.707 29.6887L76.5462 8.35116C76.1579 7.80463 75.5195 7.48063 74.8481 7.49045C74.1801 7.497 73.5483 7.83735 73.1731 8.39043L62.4779 24.2562H49.8576L39.1591 8.39043C38.7873 7.83735 38.1554 7.497 37.4841 7.49045C36.8128 7.48063 36.1743 7.80463 35.786 8.35116L24.3372 24.4656L20.6252 29.6887C20.0263 30.1796 19.4504 30.7 18.9008 31.2465C14.5635 35.5599 11.8716 41.539 11.8716 48.1235V63.0467C11.8716 69.6313 14.5635 75.6104 18.9008 79.9237C23.2381 84.237 29.2504 86.9141 35.8716 86.9141H76.4606C83.0818 86.9141 89.0941 84.237 93.4314 79.9237C96.7321 76.6445 99.0818 72.3966 100.013 67.6546C100.309 66.1623 100.461 64.6209 100.461 63.0467V48.1235C100.464 41.539 97.772 35.5599 93.4314 31.2465ZM74.9172 13.1161L83.5952 25.3296C81.3409 24.6325 78.9419 24.2562 76.4606 24.2562H67.4076L74.9172 13.1161ZM37.415 13.1161L44.9279 24.2562H35.8716C33.3903 24.2562 30.9946 24.6325 28.7371 25.3296L37.415 13.1161ZM90.5355 77.0438C86.9288 80.6306 81.9629 82.8396 76.4606 82.8429H35.8716C30.3693 82.8396 25.4068 80.6306 21.7967 77.0438C18.19 73.4537 15.9687 68.5186 15.9654 63.0467V48.1235C15.9687 42.6517 18.19 37.7132 21.7967 34.1264C24.0476 31.8912 26.8218 30.1895 29.9251 29.2273V29.224C31.8008 28.6415 33.7984 28.3273 35.8716 28.3273H76.4606C81.9629 28.3273 86.9288 30.5396 90.5355 34.1264C94.1423 37.7132 96.3669 42.6517 96.3669 48.1235V63.0467C96.3669 63.7962 96.3241 64.5358 96.2418 65.2656C95.7317 69.8473 93.6486 73.9446 90.5355 77.0438Z"
        fill="#152F40" />
    <path d="M44.9282 24.256H35.8718C33.3905 24.256 30.9948 24.6324 28.7373 25.3294L37.4152 13.116L44.9282 24.256Z"
        fill="white" />
    <path d="M83.5948 25.3294C81.3406 24.6324 78.9416 24.256 76.4603 24.256H67.4072L74.9169 13.116L83.5948 25.3294Z"
        fill="white" />
    <path
        d="M80.8306 43.7217C77.9051 40.8058 73.8409 38.9993 69.3719 38.9993C65.933 38.9993 62.7278 40.0694 60.1083 41.8923C58.578 42.9526 57.2452 44.2682 56.1659 45.7769C55.0865 44.2682 53.7537 42.9526 52.2267 41.8923C49.6039 40.0694 46.3987 38.9993 42.9631 38.9993C38.4941 38.9993 34.4299 40.8058 31.5011 43.7217C28.5723 46.6311 26.7524 50.6728 26.7524 55.117C26.7524 59.5612 28.5723 63.6029 31.5011 66.5156C34.4299 69.4282 38.4941 71.238 42.9631 71.238C46.3987 71.238 49.6039 70.1646 52.2267 68.345C53.7537 67.2847 55.0865 65.9658 56.1659 64.4571C57.2452 65.9658 58.578 67.2847 60.1083 68.345C62.7278 70.1646 65.933 71.238 69.3719 71.238C73.8409 71.238 77.9051 69.4282 80.8306 66.5156C83.7627 63.6029 85.5793 59.5612 85.5793 55.117C85.5793 50.6728 83.7627 46.6311 80.8306 43.7217ZM77.938 63.6357C75.7364 65.8185 72.722 67.1636 69.3719 67.1636C66.7886 67.1636 64.416 66.3683 62.4513 65.0069C60.49 63.6422 58.9499 61.7146 58.0745 59.4663C57.7718 58.6809 57.0149 58.1671 56.1659 58.1671C55.3201 58.1671 54.5632 58.6809 54.2572 59.4663C53.3851 61.7146 51.845 63.6422 49.8837 65.0069C47.919 66.3683 45.5431 67.1636 42.9631 67.1636C39.6097 67.1636 36.5953 65.8185 34.397 63.6357C32.2021 61.4496 30.8495 58.4485 30.8495 55.117C30.8495 51.7855 32.2021 48.7845 34.397 46.5983C36.5953 44.4155 39.6097 43.0704 42.9631 43.0704C45.5431 43.0704 47.919 43.8689 49.8837 45.2304C51.845 46.5918 53.3851 48.5194 54.2572 50.7677C54.5632 51.5531 55.3201 52.0702 56.1659 52.0702C57.0149 52.0702 57.7718 51.5531 58.0745 50.7677C58.9499 48.5194 60.49 46.5918 62.4513 45.2304C64.416 43.8689 66.7886 43.0704 69.3719 43.0704C72.722 43.0704 75.7364 44.4155 77.938 46.5983C80.1329 48.7845 81.4855 51.7855 81.4855 55.117C81.4855 58.4485 80.1329 61.4496 77.938 63.6357Z"
        fill="#152F40" />
    <path
        d="M77.9381 46.5985C75.7365 44.4156 72.7221 43.0706 69.372 43.0706C66.7887 43.0706 64.416 43.8691 62.4514 45.2305C60.4901 46.5919 58.95 48.5195 58.0746 50.7678C57.7719 51.5532 57.015 52.0703 56.1659 52.0703C55.3202 52.0703 54.5633 51.5532 54.2573 50.7678C53.3852 48.5195 51.8451 46.5919 49.8838 45.2305C47.9191 43.8691 45.5432 43.0706 42.9631 43.0706C39.6098 43.0706 36.5954 44.4156 34.3971 46.5985C32.2021 48.7846 30.8496 51.7856 30.8496 55.1171C30.8496 58.4487 32.2021 61.4497 34.3971 63.6358C36.5954 65.8187 39.6098 67.1637 42.9631 67.1637C45.5432 67.1637 47.9191 66.3685 49.8838 65.007C51.8451 63.6424 53.3852 61.7148 54.2573 59.4665C54.5633 58.681 55.3202 58.1672 56.1659 58.1672C57.015 58.1672 57.7719 58.681 58.0746 59.4665C58.95 61.7148 60.4901 63.6424 62.4514 65.007C64.416 66.3685 66.7887 67.1637 69.372 67.1637C72.7221 67.1637 75.7365 65.8187 77.9381 63.6358C80.133 61.4497 81.4856 58.4487 81.4856 55.1171C81.4856 51.7856 80.133 48.7846 77.9381 46.5985ZM42.3148 60.9326C42.3148 60.9326 39.442 58.3309 39.442 55.1171C39.442 51.9067 42.3148 49.3016 42.3148 49.3016C42.3148 49.3016 45.191 51.9067 45.191 55.1171C45.191 58.3309 42.3148 60.9326 42.3148 60.9326ZM70.017 60.9326C70.017 60.9326 67.1441 58.3309 67.1441 55.1171C67.1441 51.9067 70.017 49.3016 70.017 49.3016C70.017 49.3016 72.8932 51.9067 72.8932 55.1171C72.8932 58.3309 70.017 60.9326 70.017 60.9326Z"
        fill="#152F40" />
    <path
        d="M45.191 55.117C45.191 58.3307 42.3148 60.9325 42.3148 60.9325C42.3148 60.9325 39.4419 58.3307 39.4419 55.117C39.4419 51.9065 42.3148 49.3015 42.3148 49.3015C42.3148 49.3015 45.191 51.9065 45.191 55.117Z"
        fill="white" />
    <path
        d="M72.8931 55.117C72.8931 58.3307 70.0169 60.9325 70.0169 60.9325C70.0169 60.9325 67.144 58.3307 67.144 55.117C67.144 51.9065 70.0169 49.3015 70.0169 49.3015C70.0169 49.3015 72.8931 51.9065 72.8931 55.117Z"
        fill="white" />
    <path d="M56.166 80.2641L61.5498 73.385H50.7822L56.166 80.2641Z" fill="#152F40" />
    <path
        d="M0.166016 54.6132C0.166016 60.1734 3.56873 64.7977 8.06729 65.8056V43.4241C3.56873 44.4255 0.166016 49.053 0.166016 54.6132Z"
        fill="#152F40" />
    <path
        d="M104.265 43.4207V65.8022C108.763 64.7942 112.166 60.17 112.166 54.6098C112.166 49.0496 108.763 44.4254 104.265 43.4207Z"
        fill="#152F40" />
    <defs>
        <linearGradient id="paint0_linear_54_58" x1="293.5" y1="0" x2="293.5" y2="109" gradientUnits="userSpaceOnUse">
            <stop stop-color="#15F4EE" />
            <stop offset="1" stop-color="#15F4EE" stop-opacity="0" />
        </linearGradient>
    </defs>
</svg>