<svg width="200" height="200" viewBox="0 0 200 200" fill="none" xmlns="http://www.w3.org/2000/svg">
<rect width="200" height="200" fill="black"/>
<path d="M36.028 113L28.072 101.876V113H21.016V87.62H28.072V98.564L35.956 87.62H44.092L34.768 99.932L44.56 113H36.028ZM50.7011 90.932C49.4531 90.932 48.4451 90.596 47.6771 89.924C46.9331 89.228 46.5611 88.364 46.5611 87.332C46.5611 86.276 46.9331 85.4 47.6771 84.704C48.4451 84.008 49.4531 83.66 50.7011 83.66C51.9251 83.66 52.9091 84.008 53.6531 84.704C54.4211 85.4 54.8051 86.276 54.8051 87.332C54.8051 88.364 54.4211 89.228 53.6531 89.924C52.9091 90.596 51.9251 90.932 50.7011 90.932ZM54.1931 92.804V113H47.1371V92.804H54.1931ZM71.4233 92.624C73.7513 92.624 75.5993 93.404 76.9673 94.964C78.3353 96.5 79.0193 98.588 79.0193 101.228V113H71.9633V102.164C71.9633 101.012 71.6633 100.112 71.0633 99.464C70.4633 98.792 69.6593 98.456 68.6513 98.456C67.5953 98.456 66.7673 98.792 66.1673 99.464C65.5673 100.112 65.2673 101.012 65.2673 102.164V113H58.2113V92.804H65.2673V95.684C65.8913 94.772 66.7313 94.04 67.7873 93.488C68.8433 92.912 70.0553 92.624 71.4233 92.624ZM81.739 102.884C81.739 100.796 82.111 98.972 82.855 97.412C83.623 95.852 84.667 94.652 85.987 93.812C87.307 92.972 88.771 92.552 90.379 92.552C91.675 92.552 92.827 92.828 93.835 93.38C94.867 93.908 95.671 94.64 96.247 95.576V86.36H103.339V113H96.247V110.192C95.695 111.128 94.915 111.872 93.907 112.424C92.899 112.976 91.711 113.252 90.343 113.252C88.735 113.252 87.271 112.832 85.951 111.992C84.655 111.152 83.623 109.952 82.855 108.392C82.111 106.808 81.739 104.972 81.739 102.884ZM96.283 102.884C96.283 101.588 95.923 100.568 95.203 99.824C94.507 99.08 93.643 98.708 92.611 98.708C91.555 98.708 90.679 99.08 89.983 99.824C89.287 100.544 88.939 101.564 88.939 102.884C88.939 104.18 89.287 105.212 89.983 105.98C90.679 106.724 91.555 107.096 92.611 107.096C93.643 107.096 94.507 106.724 95.203 105.98C95.923 105.236 96.283 104.204 96.283 102.884ZM114.416 96.368C115.208 95.216 116.168 94.304 117.296 93.632C118.424 92.96 119.636 92.624 120.932 92.624V100.148H118.952C117.416 100.148 116.276 100.448 115.532 101.048C114.788 101.648 114.416 102.692 114.416 104.18V113H107.36V92.804H114.416V96.368ZM132.857 113.252C130.841 113.252 129.029 112.832 127.421 111.992C125.837 111.152 124.589 109.952 123.677 108.392C122.765 106.832 122.309 104.996 122.309 102.884C122.309 100.796 122.765 98.972 123.677 97.412C124.613 95.852 125.873 94.652 127.457 93.812C129.065 92.972 130.877 92.552 132.893 92.552C134.909 92.552 136.709 92.972 138.293 93.812C139.901 94.652 141.161 95.852 142.073 97.412C143.009 98.972 143.477 100.796 143.477 102.884C143.477 104.972 143.009 106.808 142.073 108.392C141.161 109.952 139.901 111.152 138.293 111.992C136.685 112.832 134.873 113.252 132.857 113.252ZM132.857 107.132C133.841 107.132 134.657 106.772 135.305 106.052C135.977 105.308 136.313 104.252 136.313 102.884C136.313 101.516 135.977 100.472 135.305 99.752C134.657 99.032 133.853 98.672 132.893 98.672C131.933 98.672 131.129 99.032 130.481 99.752C129.833 100.472 129.509 101.516 129.509 102.884C129.509 104.276 129.821 105.332 130.445 106.052C131.069 106.772 131.873 107.132 132.857 107.132ZM149.912 90.932C148.664 90.932 147.656 90.596 146.888 89.924C146.144 89.228 145.772 88.364 145.772 87.332C145.772 86.276 146.144 85.4 146.888 84.704C147.656 84.008 148.664 83.66 149.912 83.66C151.136 83.66 152.12 84.008 152.864 84.704C153.632 85.4 154.016 86.276 154.016 87.332C154.016 88.364 153.632 89.228 152.864 89.924C152.12 90.596 151.136 90.932 149.912 90.932ZM153.404 92.804V113H146.348V92.804H153.404ZM156.27 102.884C156.27 100.796 156.642 98.972 157.386 97.412C158.154 95.852 159.198 94.652 160.518 93.812C161.838 92.972 163.302 92.552 164.91 92.552C166.206 92.552 167.358 92.828 168.366 93.38C169.398 93.908 170.202 94.64 170.778 95.576V86.36H177.87V113H170.778V110.192C170.226 111.128 169.446 111.872 168.438 112.424C167.43 112.976 166.242 113.252 164.874 113.252C163.266 113.252 161.802 112.832 160.482 111.992C159.186 111.152 158.154 109.952 157.386 108.392C156.642 106.808 156.27 104.972 156.27 102.884ZM170.814 102.884C170.814 101.588 170.454 100.568 169.734 99.824C169.038 99.08 168.174 98.708 167.142 98.708C166.086 98.708 165.21 99.08 164.514 99.824C163.818 100.544 163.47 101.564 163.47 102.884C163.47 104.18 163.818 105.212 164.514 105.98C165.21 106.724 166.086 107.096 167.142 107.096C168.174 107.096 169.038 106.724 169.734 105.98C170.454 105.236 170.814 104.204 170.814 102.884Z" fill="url(#paint0_linear_569_660)"/>
<defs>
<linearGradient id="paint0_linear_569_660" x1="20.4082" y1="123.143" x2="175.007" y2="111.512" gradientUnits="userSpaceOnUse">
<stop offset="0.227224" stop-color="#8B6DFF"/>
<stop offset="0.96875" stop-color="#FE8484"/>
</linearGradient>
</defs>
</svg>
