<svg width="48" height="48" viewBox="0 0 48 48" fill="none" xmlns="http://www.w3.org/2000/svg">
<rect width="48" height="48" rx="8" fill="#0D0D0D"/>
<path fill-rule="evenodd" clip-rule="evenodd" d="M22.2929 19.5027C22.0942 20.1076 21.9726 20.7519 21.6838 21.3109C20.145 24.2893 18.5806 27.2551 16.9927 30.208C15.8581 32.318 13.5195 33.069 11.5499 32.0063C9.63351 30.9723 8.99453 28.6557 10.0895 26.5599C11.6718 23.5314 13.2538 20.5019 14.8963 17.5055C15.7986 15.8597 17.6099 15.19 19.3933 15.701C21.06 16.1785 22.1987 17.7158 22.2929 19.5027Z" fill="#FEFEFE"/>
<path fill-rule="evenodd" clip-rule="evenodd" d="M32.9801 19.4834C32.7813 20.0883 32.6597 20.7326 32.3709 21.2916C30.8321 24.27 29.2677 27.2358 27.6798 30.1887C26.5452 32.2987 24.2067 33.0497 22.237 31.987C20.3206 30.953 19.6816 28.6364 20.7766 26.5406C22.3589 23.5121 23.9409 20.4826 25.5834 17.4862C26.4857 15.8404 28.297 15.1707 30.0804 15.6817C31.7471 16.1593 32.8858 17.6965 32.9801 19.4834Z" fill="#FEFEFE"/>
<path fill-rule="evenodd" clip-rule="evenodd" d="M34.6194 20.6052C35.7212 22.5387 36.8079 24.4052 37.8553 26.2958C38.8712 28.1295 38.5452 30.2482 37.0937 31.5334C35.6587 32.8039 33.545 32.8026 32.1306 31.5303C30.6894 30.2339 30.3755 28.1045 31.3907 26.2837C32.4425 24.3974 33.5237 22.5293 34.6194 20.6052Z" fill="#FEFEFE"/>
</svg>
