<svg viewBox="0 0 600 600" fill="none" xmlns="http://www.w3.org/2000/svg">
    <path
        d="M29.25 211.5C29.25 123 29.25 78.825 56.7 51.375C84.15 24 128.325 24 216.675 24H382.575C470.925 24 515.1 24 542.55 51.45C570 78.9 570 123.075 570 211.425V377.325C570 465.675 570 509.85 542.55 537.3C515.1 564.75 470.925 564.75 382.575 564.75H216.675C128.325 564.75 84.15 564.75 56.7 537.3C29.25 509.85 29.25 465.675 29.25 377.325V211.425V211.5Z"
        fill="#040404" />
    <path
        d="M263.077 300C273.365 307.711 286.145 312.285 300 312.285C313.855 312.285 326.635 307.711 336.923 300C345.083 293.883 352.584 284.643 359.679 274.508C364.393 267.775 367.627 263.305 369.804 260.374C389.892 232.302 422.806 214 459.998 214V238.571C430.718 238.571 404.799 253.148 389.229 275.428C387.921 277.183 386.314 279.527 384.486 282.193C381.301 286.838 377.445 292.463 373.332 297.645C367.129 305.461 361.458 311.124 361.458 311.124C345.825 327.004 324.062 336.857 300 336.857C275.938 336.857 254.175 327.004 238.542 311.124C238.542 311.124 232.871 305.461 226.668 297.645C222.554 292.462 218.699 286.839 215.514 282.193C213.686 279.527 212.079 277.183 210.771 275.428C195.201 253.148 169.282 238.571 140.002 238.571V214C177.194 214 210.108 232.302 230.196 260.374C232.373 263.305 235.607 267.775 240.32 274.508C247.416 284.643 254.917 293.883 263.077 300Z"
        fill="#FCFCFD" />
    <path
        d="M300 361.427C332.807 361.427 362.284 347.191 382.567 324.57C382.567 324.57 386.305 320.504 390.565 314.435C391.419 313.217 392.331 311.901 393.293 310.513C398.987 302.292 406.466 291.494 414.592 283.119C425.843 270.845 442.018 263.143 459.999 263.142V287.713C449.064 287.713 439.236 292.459 432.48 299.999C432.48 299.999 427.897 305.152 424 311.124C420.102 317.096 406.103 336.705 396.754 345.384C372.179 370.445 337.909 385.998 300.001 385.998C262.093 385.998 227.821 370.445 203.246 345.384C193.897 336.705 179.898 317.096 176 311.124C172.103 305.152 167.52 299.999 167.52 299.999C160.764 292.459 150.936 287.713 140.001 287.713V263.142C157.982 263.143 174.157 270.845 185.408 283.119C193.534 291.494 201.013 302.292 206.707 310.513C207.669 311.901 208.581 313.217 209.435 314.435C213.695 320.504 217.433 324.57 217.433 324.57C237.716 347.191 267.194 361.427 300 361.427Z"
        fill="#FCFCFD" />
    <path
        d="M147.205 314.624C143.751 312.286 140 312.286 140 312.286L140 336.857H165.152C164.292 335.469 161.896 332.007 159.056 328.196C158.45 327.382 157.836 326.525 157.208 325.649C154.395 321.722 151.292 317.39 147.205 314.624Z"
        fill="#FCFCFD" />
    <path d="M214.708 386H140V361.429H184.551C193.545 370.784 203.672 379.045 214.708 386Z" fill="#FCFCFD" />
    <path
        d="M452.795 314.624C456.249 312.286 460 312.286 460 312.286L460 336.857H434.848C435.708 335.469 438.104 332.007 440.944 328.196C441.55 327.382 442.164 326.525 442.792 325.649C445.605 321.722 448.708 317.39 452.795 314.624Z"
        fill="#FCFCFD" />
    <path d="M385.292 386H460V361.429H415.449C406.455 370.784 396.328 379.045 385.292 386Z" fill="#FCFCFD" />
</svg>