<?xml version="1.0" standalone="no"?>
<!DOCTYPE svg PUBLIC "-//W3C//DTD SVG 20010904//EN"
 "http://www.w3.org/TR/2001/REC-SVG-20010904/DTD/svg10.dtd">
<svg version="1.0" xmlns="http://www.w3.org/2000/svg"
 width="300.000000pt" height="300.000000pt" viewBox="0 0 300.000000 300.000000"
 preserveAspectRatio="xMidYMid meet">
<metadata>
Created by potrace 1.10, written by Peter Selinger 2001-2011
</metadata>
<g transform="translate(0.000000,300.000000) scale(0.100000,-0.100000)"
fill="#d42c29" stroke="none">
<path d="M838 2827 c-108 -40 -200 -115 -246 -202 -22 -42 -27 -63 -27 -130 0
-53 6 -94 17 -121 27 -66 122 -205 175 -256 l49 -48 114 11 c225 22 319 1 409
-89 117 -117 140 -271 49 -318 -32 -17 -127 -18 -183 -3 -44 12 -120 84 -295
282 l-95 107 -63 -6 c-157 -15 -392 -86 -509 -155 -215 -126 -285 -336 -183
-545 88 -181 276 -251 522 -195 l96 22 33 82 c79 199 142 283 252 333 52 24
75 29 142 29 126 0 201 -51 198 -135 -2 -46 -13 -70 -60 -128 -47 -57 -106
-85 -248 -116 -66 -15 -163 -36 -217 -48 l-96 -21 -61 -181 c-70 -207 -91
-295 -91 -385 0 -127 59 -274 135 -337 132 -108 332 -130 478 -52 105 56 174
159 213 315 l18 71 -42 60 c-66 94 -139 252 -152 330 -27 163 64 332 181 332
45 0 94 -32 134 -89 46 -66 42 -134 -22 -331 -28 -85 -60 -188 -71 -228 l-21
-73 51 -62 c28 -34 108 -119 177 -188 98 -97 141 -133 192 -158 272 -133 612
21 636 288 11 126 -32 241 -143 379 -55 68 -71 83 -88 78 -12 -3 -69 -11 -127
-17 -191 -21 -335 17 -425 113 -147 158 -103 341 79 324 119 -12 204 -68 345
-230 53 -61 109 -127 124 -146 l27 -34 153 33 c443 95 628 256 616 537 -3 78
-9 101 -36 156 -38 78 -101 139 -180 176 -51 24 -67 27 -157 25 -55 -1 -140
-10 -189 -20 l-89 -18 -38 -94 c-71 -175 -154 -284 -251 -329 -115 -53 -266
-50 -331 8 -29 25 -32 34 -32 82 1 40 8 66 28 100 53 92 100 113 427 193 105
26 190 52 196 60 21 29 104 295 120 387 11 61 15 126 12 190 -4 88 -9 106 -42
172 -38 77 -75 117 -150 161 -151 88 -341 89 -434 2 -34 -32 -89 -134 -149
-277 l-52 -124 33 -46 c146 -201 205 -407 148 -516 -77 -148 -180 -175 -279
-72 -47 49 -77 122 -69 170 4 22 40 130 81 240 41 110 75 207 75 216 0 31
-186 241 -308 348 -120 105 -170 127 -307 131 -97 3 -118 1 -177 -20z"/>
</g>
</svg>
