<svg width="34" height="34" viewBox="0 0 34 34" fill="none" xmlns="http://www.w3.org/2000/svg">
  <ellipse cx="22.6666" cy="15.9261" rx="11.3336" ry="11.3582" fill="#FF2815"/>
  <path d="M11.6736 27.2844H11.1144C9.25968 27.2844 7.44405 27.8188 5.8839 28.8239C3.4265 30.4071 0.18749 28.7217 0.10012 25.7953C0.0438839 23.9117 0 21.9908 0 20.583C0 19.4764 0.0271174 17.7175 0.0660358 15.763C0.190167 9.52925 5.37178 4.56787 11.5933 4.56787C17.8527 4.56787 23.0073 9.65313 23.0073 15.9261C23.0073 22.1991 17.933 27.2844 11.6736 27.2844Z" fill="#3C38FF"/>
  <path d="M17.1698 25.8614C13.6887 23.9229 11.333 20.2002 11.333 15.9261C11.333 11.6645 13.6749 7.95103 17.1394 6.00781C20.6276 7.95103 23.0067 11.6645 23.0067 15.9261C23.0067 20.2002 20.651 23.9229 17.1698 25.8614Z" fill="#FF7DFF"/>
</svg>