<svg width="256" height="256" viewBox="0 0 256 256" fill="none" xmlns="http://www.w3.org/2000/svg">
<path d="M160.582 98.8256V80.5258L102.93 47.3007L67.6477 67.6257L51.6582 95.1509L102.93 65.6007L160.582 98.8256Z" fill="#3F8CFF"/>
<path d="M102.933 76.1003L45.5059 109.175V150.05L61.1951 177.275V118.551L118.848 85.3252L102.933 76.1003Z" fill="#3F8CFF"/>
<path d="M86.188 114.65L70.2734 123.801V189.875L106.006 210.5H137.234L86.188 181.025V114.65Z" fill="#3F8CFF"/>
<path d="M95.2695 157.475V175.776L152.772 209L188.504 188.376L204.344 161.075L152.847 190.7L95.2695 157.475Z" fill="#3F8CFF"/>
<path d="M194.669 78.1995V137.899L137.018 171.05L152.932 180.275L210.66 146.899V105.8L194.669 78.1995Z" fill="#3F8CFF"/>
<path d="M169.672 141.725L185.585 132.65V65.9001L150.304 45.5001H118.024L169.672 75.275V141.725Z" fill="#3F8CFF"/>
</svg>
