<svg xmlns="http://www.w3.org/2000/svg" viewBox="0 0 96 96" role="img" aria-label="Sider">
  <defs>
    <linearGradient id="sider-g" x1="10" y1="10" x2="86" y2="86" gradientUnits="userSpaceOnUse">
      <stop offset="0" stop-color="#2563eb"/>
      <stop offset="1" stop-color="#8b5cf6"/>
    </linearGradient>
  </defs>
  <rect width="96" height="96" rx="24" fill="url(#sider-g)"/>
  <path fill="#fff" d="M29 33c0-6 5-11 11-11h23v11H42c-1 0-2 1-2 2s1 2 2 2h11c8 0 14 6 14 14s-6 14-14 14H31V54h22c2 0 3-1 3-3 0-1-1-3-3-3H42c-8 0-13-6-13-15Z"/>
</svg>
