<?xml version="1.0" encoding="UTF-8"?> <svg xmlns="http://www.w3.org/2000/svg" width="57" height="33" viewBox="0 0 57 33" fill="none"><path fill-rule="evenodd" clip-rule="evenodd" d="M31.9885 23.0205C31.9993 23.4509 32.01 23.881 32.0538 24.3076L32.054 24.3127C32.1148 24.894 31.9318 25.2637 31.4802 25.5949C30.2876 26.4662 29.1026 27.3475 27.9177 28.2288C27.1914 28.769 26.465 29.3092 25.737 29.8471C25.6527 29.9097 25.5276 29.9163 25.573 29.9028C25.5412 29.537 25.511 29.171 25.4808 28.8051C25.395 27.7641 25.3092 26.7234 25.1869 25.687C25.1495 25.3639 24.944 25.0018 24.7094 24.7719C22.9942 23.0858 21.2575 21.4212 19.5055 19.7739C19.3346 19.6118 19.0113 19.5435 18.7659 19.5566C17.7699 19.6107 16.7747 19.686 15.6944 19.7678C15.3231 19.7959 14.9418 19.8248 14.5469 19.8539C14.6803 19.6077 14.8051 19.3749 14.9247 19.1517C15.1767 18.6817 15.4058 18.2541 15.6456 17.8331C16.0731 17.0821 16.5048 16.3337 16.9364 15.5854C17.3681 14.837 17.7998 14.0887 18.2273 13.3376C18.5519 12.7655 18.9121 12.4164 19.6577 12.4256C20.2284 12.4321 20.5423 12.4146 20.8438 12.3979C21.0425 12.3868 21.2358 12.3761 21.4937 12.3727C22.4768 12.3589 23.0188 11.961 23.58 11.2299C25.145 9.19173 26.9415 7.51331 28.9234 6.13623C31.202 4.5514 35.9733 2.99084 39.3517 2.93359C39.8788 6.96119 39.0424 10.4722 37.3981 13.824C36.1585 16.3551 34.4356 18.5039 32.4537 20.4367C32.0221 20.8581 31.8862 21.2823 31.9359 21.8653C31.9693 22.249 31.9789 22.6349 31.9885 23.0205ZM28.9977 10.0318C27.8588 11.3138 27.944 13.3095 29.1879 14.4896C30.4319 15.6696 32.3635 15.587 33.5024 14.305C34.6414 13.023 34.5562 11.0273 33.3122 9.84722C32.0683 8.66716 30.1366 8.74979 28.9977 10.0318ZM16.2633 29.0165C16.6009 25.8092 17.4201 23.0907 19.2455 21.0119L23.6854 25.2238C21.9276 27.342 19.3035 28.3385 16.2633 29.0165Z" fill="#FF2210"></path><path d="M0 16.402V14.9146C1.33548 14.9146 2.26712 14.6347 2.79491 14.0749C3.3307 13.5151 3.5986 12.5795 3.5986 11.268V7.42949C3.5986 6.32592 3.70256 5.3703 3.91047 4.56261C4.12639 3.75493 4.47425 3.08719 4.95407 2.55939C5.43388 2.0316 6.07363 1.63975 6.87332 1.38385C7.67301 1.12795 8.66062 1 9.83616 1V3.35108C8.90852 3.35108 8.17681 3.49503 7.64102 3.78292C7.11323 4.0708 6.73737 4.51863 6.51346 5.12639C6.29754 5.72616 6.18959 6.49386 6.18959 7.42949V12.2276C6.18959 12.8514 6.10562 13.4192 5.93768 13.931C5.77775 14.4428 5.47786 14.8826 5.03803 15.2504C4.59821 15.6183 3.97045 15.9022 3.15477 16.1021C2.34708 16.302 1.29549 16.402 0 16.402ZM9.83616 31.708C8.66062 31.708 7.67301 31.5801 6.87332 31.3242C6.07363 31.0683 5.43388 30.6764 4.95407 30.1486C4.47425 29.6208 4.12639 28.9531 3.91047 28.1454C3.70256 27.3377 3.5986 26.3821 3.5986 25.2785V21.44C3.5986 20.1285 3.3307 19.1929 2.79491 18.6331C2.26712 18.0733 1.33548 17.7935 0 17.7935V16.306C1.29549 16.306 2.34708 16.406 3.15477 16.6059C3.97045 16.8058 4.59821 17.0897 5.03803 17.4576C5.47786 17.8254 5.77775 18.2653 5.93768 18.7771C6.10562 19.2889 6.18959 19.8566 6.18959 20.4804V25.2785C6.18959 26.2142 6.29754 26.9819 6.51346 27.5816C6.73737 28.1814 7.11323 28.6252 7.64102 28.9131C8.17681 29.209 8.90852 29.3569 9.83616 29.3569V31.708ZM0 17.7935V14.9146H2.8309V17.7935H0Z" fill="#1F46C1"></path><path d="M56.2656 16.402V14.9146C54.9301 14.9146 53.9985 14.6347 53.4707 14.0749C52.9349 13.5151 52.667 12.5795 52.667 11.268V7.42949C52.667 6.32592 52.5631 5.3703 52.3552 4.56261C52.1392 3.75493 51.7914 3.08719 51.3116 2.55939C50.8317 2.0316 50.192 1.63975 49.3923 1.38385C48.5926 1.12795 47.605 1 46.4295 1V3.35108C47.3571 3.35108 48.0888 3.49503 48.6246 3.78292C49.1524 4.0708 49.5283 4.51863 49.7522 5.12639C49.9681 5.72616 50.076 6.49386 50.076 7.42949V12.2276C50.076 12.8514 50.16 13.4192 50.3279 13.931C50.4879 14.4428 50.7878 14.8826 51.2276 15.2504C51.6674 15.6183 52.2952 15.9022 53.1109 16.1021C53.9185 16.302 54.9701 16.402 56.2656 16.402ZM46.4295 31.708C47.605 31.708 48.5926 31.5801 49.3923 31.3242C50.192 31.0683 50.8317 30.6764 51.3116 30.1486C51.7914 29.6208 52.1392 28.9531 52.3552 28.1454C52.5631 27.3377 52.667 26.3821 52.667 25.2785V21.44C52.667 20.1285 52.9349 19.1929 53.4707 18.6331C53.9985 18.0733 54.9301 17.7935 56.2656 17.7935V16.306C54.9701 16.306 53.9185 16.406 53.1109 16.6059C52.2952 16.8058 51.6674 17.0897 51.2276 17.4576C50.7878 17.8254 50.4879 18.2653 50.3279 18.7771C50.16 19.2889 50.076 19.8566 50.076 20.4804V25.2785C50.076 26.2142 49.9681 26.9819 49.7522 27.5816C49.5283 28.1814 49.1524 28.6252 48.6246 28.9131C48.0888 29.209 47.3571 29.3569 46.4295 29.3569V31.708ZM56.2656 17.7935V14.9146H53.4347V17.7935H56.2656Z" fill="#1F46C1"></path></svg> 