<svg width="256" height="256" viewBox="0 0 256 256" fill="none" xmlns="http://www.w3.org/2000/svg">
<rect width="256" height="256" fill="#010101"/>
<g clip-path="url(#clip0_3655_31096)">
<path d="M119.488 111.4L120.596 110.306L120.951 109.948C120.951 109.948 130.521 103.646 136.261 103.646H136.756C131.392 103.371 126.313 101.166 122.466 97.4436L108.264 83.3599H107.326L105.764 84.9164V85.848L119.541 99.5324C121.111 101.117 121.986 103.254 121.976 105.477C121.967 107.7 121.072 109.829 119.488 111.4V111.4Z" fill="url(#paint0_linear_3655_31096)"/>
<path d="M129.337 92.3574L118.905 82H117.967L116.405 83.5507V84.4823L127.32 95.3257C129.996 97.9816 133.625 99.4739 137.409 99.4745H145.311L145.976 98.8206V96.6161L145.311 95.9622H138.102C134.814 95.9622 131.662 94.6655 129.337 92.3574V92.3574Z" fill="url(#paint1_linear_3655_31096)"/>
<path d="M129.337 118.638L118.905 128.995H117.967L116.405 127.439V126.507L127.32 115.67C129.996 113.014 133.625 111.522 137.409 111.521H145.311L145.976 112.175V114.374L145.311 115.033H138.102C134.814 115.033 131.662 116.33 129.337 118.638V118.638Z" fill="url(#paint2_linear_3655_31096)"/>
<path d="M112.886 99.8796L106.516 93.561H105.583L104.016 95.1175V96.0433L110.082 102.073C110.53 102.516 110.885 103.043 111.127 103.623C111.37 104.202 111.494 104.824 111.494 105.452C111.494 106.08 111.37 106.701 111.127 107.281C110.885 107.861 110.53 108.388 110.082 108.831L104.464 114.415V115.34L106.032 116.897H106.965L112.88 111.03C113.618 110.298 114.204 109.429 114.604 108.473C115.003 107.517 115.21 106.491 115.21 105.456C115.211 104.42 115.006 103.395 114.607 102.438C114.208 101.481 113.623 100.612 112.886 99.8796V99.8796Z" fill="url(#paint3_linear_3655_31096)"/>
<path d="M151.32 103.646H136.261C130.519 103.65 125.012 105.917 120.951 109.948L105.612 125.177V126.109L107.18 127.665H108.118L122.42 113.483C124.429 111.482 126.816 109.895 129.444 108.811C132.072 107.728 134.89 107.17 137.736 107.17H151.332L151.985 106.54V104.341L151.32 103.646Z" fill="url(#paint4_linear_3655_31096)"/>
<path d="M15.4371 153.705H33.5036L33.9407 154.139V156.506L33.5036 156.94H26.7316L26.2945 157.374V172.418L25.8574 172.852H23.0949L22.6579 172.418V157.374L22.2208 156.94H15.4371L15 156.506V154.162L15.4371 153.705Z" fill="white"/>
<path d="M40.3334 154.162L40.7705 153.728H51.115C55.3519 153.728 57.7122 155.666 57.7122 159.444C57.7122 161.857 56.5466 163.616 54.3903 164.455L54.1572 165.069L58.0968 172.22L57.7122 172.863H54.8507L54.466 172.637L50.3341 165.219L49.9494 164.999H44.4013L43.9642 165.433V172.434L43.5271 172.868H40.7589L40.3218 172.434L40.3334 154.162ZM43.9759 157.367V161.417L44.4129 161.851H50.8236C52.9158 161.851 53.9707 161.047 53.9707 159.456C53.9707 157.72 52.9158 156.945 50.8236 156.945H44.4129L43.9759 157.367Z" fill="white"/>
<path d="M77.9067 168.934H68.751L68.3547 169.188L66.822 172.614L66.4199 172.868H63.739L63.3369 172.255L71.6067 153.901L72.0088 153.646H74.8878L75.2899 153.901L83.5539 172.255L83.1576 172.868H80.2437L79.8473 172.614L78.3088 169.188L77.9067 168.934ZM76.5604 165.196L73.7572 158.958H72.9588L70.1497 165.196L70.5519 165.774H76.1525L76.5604 165.196Z" fill="white"/>
<path d="M87.9131 163.298C87.9131 157.691 91.9926 153.403 97.634 153.403C103.101 153.403 105.676 156.754 106.457 159.033L106.044 159.612H103.13L102.763 159.409C102.215 158.561 101.455 157.868 100.557 157.397C99.6596 156.927 98.6545 156.695 97.6398 156.725C94.0265 156.725 91.6954 159.716 91.6954 163.304C91.6954 166.891 94.044 169.906 97.634 169.906C100.74 169.906 102.226 168.251 102.815 167.215L103.194 166.995H106.049L106.463 167.574C105.746 169.726 103.287 173.227 97.634 173.227C91.981 173.227 87.9131 168.905 87.9131 163.298Z" fill="white"/>
<path d="M113.905 153.705H129.728L130.165 154.139V156.396L129.728 156.83H117.541L117.104 157.264V160.735L117.541 161.169H124.826L125.263 161.603V163.918L124.826 164.352H117.541L117.104 164.792V169.206L117.541 169.64H129.728L130.165 170.074V172.389L129.728 172.823H113.905L113.468 172.389V154.162L113.905 153.705Z" fill="white"/>
<path d="M208.323 153.705H224.146L224.583 154.139V156.396L224.146 156.83H211.959L211.522 157.264V160.735L211.959 161.169H219.238L219.676 161.603V163.918L219.238 164.352H211.959L211.522 164.792V169.206L211.959 169.64H224.146L224.583 170.074V172.389L224.146 172.823H208.323L207.88 172.389V154.162L208.323 153.705Z" fill="white"/>
<path d="M149.624 168.934H140.469L140.072 169.188L138.54 172.614L138.137 172.868H135.422L135.02 172.255L143.289 153.901L143.691 153.646H146.57L146.973 153.901L155.266 172.255L154.869 172.868H151.955L151.553 172.614L150.021 169.188L149.624 168.934ZM148.243 165.196L145.446 158.958H144.647L141.832 165.196L142.234 165.774H147.835L148.243 165.196Z" fill="white"/>
<path d="M161.612 154.162L162.049 153.728H171.957C176.165 153.728 178.42 155.666 178.42 158.9C178.426 159.608 178.239 160.305 177.879 160.916C177.519 161.527 176.999 162.03 176.374 162.372V163.13C177.146 163.537 177.786 164.151 178.223 164.902C178.66 165.653 178.876 166.511 178.845 167.377C178.845 170.722 176.567 172.851 172.114 172.851H162.049L161.612 172.417V154.162ZM165.196 157.234V161.059L165.634 161.493H171.555C173.647 161.493 174.678 160.712 174.678 159.143C174.678 157.575 173.618 156.8 171.555 156.8H165.634L165.196 157.234ZM165.196 164.97V169.362L165.634 169.796H171.66C174.026 169.796 175.11 168.882 175.11 167.152C175.11 165.422 173.944 164.536 171.66 164.536H165.634L165.196 164.97Z" fill="white"/>
<path d="M201.015 172.868H186.329L185.892 172.434V154.162L186.329 153.728H189.091L189.528 154.162V169.171L189.965 169.605H201.038L201.475 170.039V172.434L201.015 172.868Z" fill="white"/>
<path d="M240.569 172.869H231.448L231.017 172.441V170.126L231.448 169.698H240.569L241 170.126V172.441L240.569 172.869Z" fill="url(#paint5_linear_3655_31096)"/>
</g>
<defs>
<linearGradient id="paint0_linear_3655_31096" x1="121.26" y1="83.3599" x2="121.26" y2="111.4" gradientUnits="userSpaceOnUse">
<stop stop-color="#03A9F4"/>
<stop offset="1" stop-color="#0096DA"/>
</linearGradient>
<linearGradient id="paint1_linear_3655_31096" x1="144.855" y1="81.8515" x2="117.377" y2="82.1765" gradientUnits="userSpaceOnUse">
<stop stop-color="#DBDBDB" stop-opacity="0.08"/>
<stop offset="0.510417" stop-color="#DCDCDC"/>
</linearGradient>
<linearGradient id="paint2_linear_3655_31096" x1="144.855" y1="111.373" x2="117.377" y2="111.698" gradientUnits="userSpaceOnUse">
<stop stop-color="#DBDBDB" stop-opacity="0.08"/>
<stop offset="0.510417" stop-color="#DCDCDC"/>
</linearGradient>
<linearGradient id="paint3_linear_3655_31096" x1="133.217" y1="117.111" x2="125.537" y2="88.4182" gradientUnits="userSpaceOnUse">
<stop stop-color="#DBDBDB" stop-opacity="0.08"/>
<stop offset="0.510417" stop-color="#DCDCDC"/>
</linearGradient>
<linearGradient id="paint4_linear_3655_31096" x1="150.228" y1="103.442" x2="107.138" y2="104.024" gradientUnits="userSpaceOnUse">
<stop stop-color="#DBDBDB" stop-opacity="0.08"/>
<stop offset="0.510417" stop-color="#DCDCDC"/>
</linearGradient>
<linearGradient id="paint5_linear_3655_31096" x1="236.008" y1="169.698" x2="236.008" y2="172.869" gradientUnits="userSpaceOnUse">
<stop stop-color="#29E3FC"/>
<stop offset="1" stop-color="#097685"/>
</linearGradient>
<clipPath id="clip0_3655_31096">
<rect width="226" height="91.2272" fill="white" transform="translate(15 82)"/>
</clipPath>
</defs>
</svg>
