<svg width="256" height="256" viewBox="0 0 256 256" fill="none" xmlns="http://www.w3.org/2000/svg">
<path d="M121.673 251.477C112.966 247.672 105.464 241.683 99.9412 234.127L17.486 123.342C11.9054 115.795 8.45603 106.964 7.48008 97.7243C6.50414 88.4848 8.03558 79.1585 11.9225 70.6704C15.8093 62.1823 21.9165 54.8275 29.6381 49.336C37.3597 43.8444 46.4273 40.4071 55.9412 39.3646L196.079 24.3561C205.538 23.2869 215.119 24.7037 223.819 28.4582C232.519 32.2127 240.02 38.1669 245.534 45.6975C251.229 53.1918 254.747 62.0306 255.722 71.2926C256.697 80.5545 255.094 89.9007 251.079 98.357L193.486 224.237C189.69 232.725 183.659 240.094 175.999 245.607C168.338 251.119 159.318 254.58 149.844 255.642C140.238 256.742 130.505 255.303 121.673 251.477ZM218.347 40.4056C211.762 37.6486 204.55 36.6021 197.421 37.3692L57.2827 52.3777C50.1243 53.1751 43.3044 55.7708 37.4969 59.9083C31.6894 64.0457 27.0954 69.5816 24.169 75.9689C21.2426 82.3562 20.0851 89.3738 20.8108 96.328C21.5366 103.282 24.1205 109.932 28.3072 115.621L110.852 226.492C115.005 232.178 120.659 236.676 127.22 239.515C133.781 242.354 141.008 243.429 148.144 242.628C155.322 241.861 162.164 239.266 167.975 235.107C173.786 230.947 178.36 225.372 181.234 218.945L239.274 93.0649C242.275 86.6965 243.476 79.6684 242.753 72.7013C242.03 65.7343 239.41 59.0792 235.16 53.4187C230.836 47.7201 225.036 43.2309 218.347 40.4056Z" fill="url(#paint0_linear_934_11730)"/>
<path d="M150.469 7.26215L103.428 34.1559C105.217 34.1559 126.859 31.6399 136.249 30.7723L157.355 18.7137C163.665 15.1388 170.841 13.2548 178.148 13.2548C185.455 13.2548 192.631 15.1388 198.94 18.7137L208.574 9.00816L205.469 7.08873C197.098 2.41526 187.603 -0.0301872 177.945 0.000281264C168.287 0.0307497 158.808 2.53596 150.469 7.26215Z" fill="url(#paint1_linear_934_11730)"/>
<path d="M198.452 18.4481C204.771 21.9362 210.694 27.0825 214.354 33.1768C218.013 39.2711 219.946 46.1958 219.957 53.2487L220.583 132.975L233.997 104.086V53.1621C233.958 44.3878 231.675 35.7601 227.351 28.0531C223.027 20.3461 215.974 13.6987 208.4 8.90234L204.463 12.614L198.452 18.4481Z" fill="url(#paint2_linear_934_11730)"/>
<path d="M206.899 222.759C204.955 224.351 202.892 225.8 200.728 227.097C194.429 230.656 187.27 232.531 179.98 232.531C172.691 232.531 165.532 230.656 159.232 227.097L78.7448 182.506L97.8829 208.532L152.883 238.809C161.292 243.479 170.827 245.904 180.517 245.836C190.195 245.796 199.682 243.218 207.972 238.375C211.201 236.48 214.201 234.239 216.915 231.695C213.126 229.23 209.748 226.216 206.899 222.759V222.759Z" fill="url(#paint3_linear_934_11730)"/>
<path d="M234.803 191.965V134.707L221.388 164.55V192.051C221.463 197.874 220.221 203.641 217.748 208.948C215.276 214.254 211.268 219.123 206.714 222.915C209.556 226.273 213.156 229.334 216.894 231.727C222.593 226.761 227.242 220.38 230.312 213.571C233.382 206.762 234.913 199.395 234.803 191.965Z" fill="url(#paint4_linear_934_11730)"/>
<path d="M13.5492 123.863C13.5054 116.841 15.3767 109.933 18.9734 103.838C22.57 97.7439 27.7641 92.6807 34.0289 89.162L107.362 47.2598L74.541 50.8167L27.3215 77.7104C18.9896 82.467 12.1131 89.2893 7.39808 97.4765C2.68306 105.664 0.133061 113.33 0 124.363C0 125.491 -9.4621e-06 126.432 0.133121 127.466L13.7464 127.423C13.6134 125.397 13.5492 124.905 13.5492 123.863Z" fill="url(#paint5_linear_934_11730)"/>
<path d="M49.59 166.81L34.5656 158.568C28.7523 155.411 23.823 150.922 20.2067 145.494C16.5905 140.066 14.326 133.862 13.7465 127.424H0.134766C0.736209 136.213 3.58596 144.718 8.42638 152.17C13.2668 159.622 19.9453 165.787 27.8583 170.106L68.9965 192.749L49.8583 166.723L49.59 166.81Z" fill="url(#paint6_linear_934_11730)"/>
<defs>
<linearGradient id="paint0_linear_934_11730" x1="7.11209" y1="139.999" x2="255.908" y2="139.999" gradientUnits="userSpaceOnUse">
<stop stop-color="#9B40F4"/>
<stop offset="0.24" stop-color="#894CF3"/>
<stop offset="0.74" stop-color="#596BF1"/>
<stop offset="1" stop-color="#3D7EEF"/>
</linearGradient>
<linearGradient id="paint1_linear_934_11730" x1="167.014" y1="-7.57287" x2="146.845" y2="49.472" gradientUnits="userSpaceOnUse">
<stop stop-color="#00ADEE"/>
<stop offset="0.35" stop-color="#00ADEE"/>
<stop offset="0.52" stop-color="#00ADEE" stop-opacity="0.77"/>
<stop offset="0.89" stop-color="#00ADEE" stop-opacity="0.18"/>
<stop offset="1" stop-color="#00ADEE" stop-opacity="0"/>
</linearGradient>
<linearGradient id="paint2_linear_934_11730" x1="211.729" y1="8.31049" x2="232.722" y2="130.765" gradientUnits="userSpaceOnUse">
<stop stop-color="#00ADEE"/>
<stop offset="0.42" stop-color="#00ADEE"/>
<stop offset="0.56" stop-color="#00ADEE" stop-opacity="0.77"/>
<stop offset="0.9" stop-color="#00ADEE" stop-opacity="0.18"/>
<stop offset="1" stop-color="#00ADEE" stop-opacity="0"/>
</linearGradient>
<linearGradient id="paint3_linear_934_11730" x1="216.826" y1="214.431" x2="78.387" y2="214.431" gradientUnits="userSpaceOnUse">
<stop stop-color="#00ADEE"/>
<stop offset="0.41" stop-color="#00ADEE"/>
<stop offset="0.51" stop-color="#00ADEE" stop-opacity="0.85"/>
<stop offset="0.74" stop-color="#00ADEE" stop-opacity="0.46"/>
<stop offset="1" stop-color="#00ADEE" stop-opacity="0"/>
</linearGradient>
<linearGradient id="paint4_linear_934_11730" x1="243.031" y1="193.006" x2="210.979" y2="173.944" gradientUnits="userSpaceOnUse">
<stop stop-color="#00ADEE"/>
<stop offset="0.41" stop-color="#00ADEE"/>
<stop offset="0.55" stop-color="#00ADEE" stop-opacity="0.77"/>
<stop offset="0.89" stop-color="#00ADEE" stop-opacity="0.18"/>
<stop offset="0.99" stop-color="#00ADEE" stop-opacity="0"/>
</linearGradient>
<linearGradient id="paint5_linear_934_11730" x1="53.6141" y1="127.42" x2="53.6141" y2="46.9995" gradientUnits="userSpaceOnUse">
<stop stop-color="#00ADEE"/>
<stop offset="0.41" stop-color="#00ADEE"/>
<stop offset="0.56" stop-color="#00ADEE" stop-opacity="0.77"/>
<stop offset="0.9" stop-color="#00ADEE" stop-opacity="0.18"/>
<stop offset="1" stop-color="#00ADEE" stop-opacity="0"/>
</linearGradient>
<linearGradient id="paint6_linear_934_11730" x1="9.88272" y1="166.463" x2="58.0624" y2="153.151" gradientUnits="userSpaceOnUse">
<stop stop-color="#00ADEE"/>
<stop offset="0.28" stop-color="#00ADEE"/>
<stop offset="0.46" stop-color="#00ADEE" stop-opacity="0.77"/>
<stop offset="0.88" stop-color="#00ADEE" stop-opacity="0.18"/>
<stop offset="1" stop-color="#00ADEE" stop-opacity="0"/>
</linearGradient>
</defs>
</svg>