<svg xmlns="http://www.w3.org/2000/svg" width="640" height="360" viewBox="0 0 640 360" role="img" aria-label="Bright AI safety graphic">
  <defs>
    <linearGradient id="bg" x1="0" y1="0" x2="1" y2="1">
      <stop offset="0" stop-color="#cffafe"/>
      <stop offset=".46" stop-color="#bfdbfe"/>
      <stop offset="1" stop-color="#fed7aa"/>
    </linearGradient>
    <linearGradient id="shield" x1="0" y1="0" x2="1" y2="1">
      <stop offset="0" stop-color="#14b8a6"/>
      <stop offset=".52" stop-color="#2563eb"/>
      <stop offset="1" stop-color="#f97316"/>
    </linearGradient>
  </defs>
  <rect width="640" height="360" rx="36" fill="url(#bg)"/>
  <path d="M320 62l154 54v92c0 78-55 128-154 164-99-36-154-86-154-164v-92z" fill="#fff" opacity=".82"/>
  <path d="M320 94l112 40v70c0 56-40 92-112 119-72-27-112-63-112-119v-70z" fill="url(#shield)" opacity=".88"/>
  <path d="M272 202l34 34 74-86" fill="none" stroke="#fff" stroke-width="22" stroke-linecap="round" stroke-linejoin="round"/>
  <g fill="#fff" opacity=".58">
    <circle cx="122" cy="104" r="24"/>
    <circle cx="518" cy="260" r="32"/>
    <circle cx="112" cy="250" r="14"/>
  </g>
</svg>
